<svg width="74" height="70" viewBox="0 0 74 70" fill="none" xmlns="http://www.w3.org/2000/svg">
<path d="M69.7232 57.7533C68.4618 58.5684 66.9729 59.2983 65.4271 59.3931C62.6769 59.5542 60.4957 58.2936 60.2301 53.8576L58.5326 22.5117L58.2576 17.1658C57.7644 7.54499 49.8173 0 40.182 0C29.7406 0 21.471 8.80565 22.1159 19.2132L24.2781 53.8481H37.4033L35.4402 15.4217C35.3169 12.9762 37.0429 10.7014 39.4802 10.4644C42.0692 10.2085 44.2883 12.1516 44.4401 14.6919L46.6687 55.2035C47.1144 62.7959 48.537 70.5873 61.7949 69.8101C66.3281 69.5447 70.7758 67.9997 73.1941 66.1514L69.7042 57.7533H69.7232Z" fill="#574143"/>
<path d="M18.0666 11.1753C7.62524 11.1753 -0.634898 19.9904 0.0384318 30.3979L1.55579 53.8575H14.681L13.3059 26.4264C13.1731 23.8103 15.2595 21.6207 17.8769 21.6207C20.2857 21.6207 22.2868 23.488 22.448 25.8956L24.2783 53.8481H37.4035L36.1232 28.3221C35.6396 18.7108 27.7019 11.1658 18.0761 11.1658L18.0666 11.1753Z" fill="#574143"/>
</svg>
