<svg width="168" height="26" viewBox="0 0 168 26" fill="none" xmlns="http://www.w3.org/2000/svg">
<path d="M41.2424 6.66602V10.1996H38.0808V21.5478H34.0586V6.66602H41.2424Z" fill="#202833"/>
<path d="M49.4294 22.007C44.718 22.007 41.4434 18.674 41.4434 14.1048C41.4434 9.53563 44.7472 6.20264 49.3747 6.20264C53.7433 6.20264 56.6715 9.50645 56.6715 14.1048C56.6715 14.5059 56.6423 14.9946 56.5548 15.3702H45.6078C46.038 17.3248 47.3909 18.4443 49.4585 18.4443C51.125 18.4443 52.2154 17.9264 53.1926 16.6902L55.5192 19.1335C53.9949 21.1172 51.9564 22.007 49.4294 22.007ZM45.6078 12.8139H52.7332C52.4451 10.9469 51.1542 9.71066 49.2835 9.71066C47.4128 9.71066 46.0089 10.8885 45.6078 12.8139Z" fill="#202833"/>
<path d="M60.861 21.5478L56.208 6.66602H60.4307L63.534 18.0434H63.6507L66.7247 6.66602H70.9183L66.2908 21.5478H60.861Z" fill="#202833"/>
<path d="M71.7197 2.3557C71.7197 1.03563 72.7845 0 74.1046 0C75.4247 0 76.4895 1.03563 76.4895 2.3557C76.4895 3.67577 75.4247 4.7114 74.1046 4.7114C72.7845 4.7114 71.7197 3.67577 71.7197 2.3557ZM72.1209 21.5477V6.66598H76.143V21.5477H72.1209Z" fill="#202833"/>
<path d="M82.8868 12.1245L84.7538 13.0726C86.4495 13.9332 87.9154 14.998 87.9154 17.4121C87.9154 20.1142 85.8478 22.0104 82.369 22.0104C79.0943 22.0104 77.4278 20.1725 76.8809 18.218L79.8674 16.5515C80.1263 17.4996 80.903 18.7358 82.3945 18.7358C83.3426 18.7358 83.9735 18.2471 83.9735 17.3865C83.9735 16.7812 83.5723 16.3801 82.3361 15.8076L80.7572 15.0308C79.0907 14.2249 77.5409 13.2477 77.5409 10.6075C77.5409 8.22265 79.696 6.21338 82.5404 6.21338C85.3847 6.21338 87.0512 7.70848 87.9409 9.48802L85.155 11.1545C84.608 10.1481 83.8349 9.4005 82.6279 9.4005C81.822 9.4005 81.2203 9.8308 81.2203 10.5784C81.2203 11.2384 81.6506 11.5265 82.8868 12.1282V12.1245Z" fill="#202833"/>
<path d="M96.445 22.007C91.7336 22.007 88.459 18.674 88.459 14.1048C88.459 9.53563 91.7628 6.20264 96.3903 6.20264C100.759 6.20264 103.687 9.50645 103.687 14.1048C103.687 14.5059 103.658 14.9946 103.574 15.3702H92.627C93.0573 17.3248 94.4102 18.4443 96.4778 18.4443C98.1443 18.4443 99.2346 17.9264 100.212 16.6902L102.538 19.1335C101.014 21.1172 98.9757 22.007 96.4486 22.007H96.445ZM92.6234 12.8139H99.7488C99.4607 10.9469 98.1698 9.71066 96.2991 9.71066C94.4284 9.71066 93.0245 10.8885 92.6234 12.8139Z" fill="#202833"/>
<path d="M105.16 6.66602H125.96V21.5478H121.938V10.112H117.569V21.5478H113.547V10.112H109.178V21.5478H105.156V6.66602H105.16Z" fill="#202833"/>
<path d="M134.606 6.20628C136.874 6.20628 138.628 7.18357 139.405 8.56198H139.518C139.489 8.33225 139.46 8.04417 139.46 7.24192V6.66575H143.135V21.5475H139.46V20.8583C139.46 20.1983 139.489 19.7935 139.518 19.4799H139.405C138.544 21.0297 136.703 22.007 134.435 22.007C130.183 22.007 127.196 18.7615 127.196 14.1048C127.196 9.44811 130.358 6.20264 134.61 6.20264L134.606 6.20628ZM139.318 14.0501C139.318 11.4938 137.622 9.71066 135.266 9.71066C132.91 9.71066 131.244 11.4938 131.244 14.0501C131.244 16.6064 132.94 18.4443 135.266 18.4443C137.593 18.4443 139.318 16.6355 139.318 14.0501Z" fill="#202833"/>
<path d="M152.048 10.1118V6.66577H148.602V2.87695H144.58V21.5512H151.622V18.0431H148.606V10.1082H152.052L152.048 10.1118Z" fill="#202833"/>
<path d="M160.526 22.007C155.815 22.007 152.54 18.674 152.54 14.1048C152.54 9.53563 155.844 6.20264 160.471 6.20264C164.84 6.20264 167.768 9.50645 167.768 14.1048C167.768 14.5059 167.739 14.9946 167.655 15.3702H156.708C157.138 17.3248 158.488 18.4443 160.559 18.4443C162.225 18.4443 163.316 17.9264 164.293 16.6902L166.619 19.1335C165.095 21.1172 163.057 22.007 160.53 22.007H160.526ZM156.704 12.8139H163.83C163.542 10.9469 162.251 9.71066 160.384 9.71066C158.517 9.71066 157.109 10.8885 156.708 12.8139H156.704Z" fill="#202833"/>
<path d="M20.1288 25.9963H16.9891L15.6436 18.0723H18.7796L20.1288 25.9963Z" fill="#574143"/>
<path d="M14.0504 18.0723L14.0395 25.9963H10.6992V18.0723H14.0504Z" fill="#574143"/>
<path d="M8.83148 18.0723H5.49121V25.9963H8.83148V18.0723Z" fill="#574143"/>
<path d="M24.6946 11.935V8.07694C24.6946 3.90523 21.2997 0.510254 17.128 0.510254H7.5703C3.39497 0.513901 0 3.90888 0 8.08059V25.9927H3.33662V8.31032C3.33662 5.85252 5.33495 3.85418 7.79274 3.85418H10.5641L10.3855 4.1532C9.71084 5.28729 9.35348 6.59278 9.35348 7.91649C9.35348 11.4026 11.7165 14.3637 15.1005 15.1295C15.5928 15.2389 16.1288 15.2972 16.7232 15.2972H21.3507V22.594C21.3507 23.5057 21.7081 24.359 22.3535 25.0008C22.9333 25.5879 23.7137 25.9416 24.5488 25.9927L24.6946 26V15.2972H28.0313V11.9423H24.6946V11.935ZM21.3471 11.935H16.7998C15.5964 11.935 14.4733 11.45 13.7184 10.6004C13.0548 9.85283 12.6901 8.90107 12.6901 7.91284C12.6901 6.8298 13.1131 5.80511 13.8825 5.03568C14.6483 4.26989 15.6694 3.85054 16.756 3.85054H16.8946C19.3488 3.85054 21.3471 5.84887 21.3471 8.30668V11.935Z" fill="#574143"/>
</svg>
