<svg width="153" height="32" viewBox="0 0 153 32" fill="none" xmlns="http://www.w3.org/2000/svg">
<g clip-path="url(#clip0_1_1539)">
<path d="M7.95445 3.00492C13.101 3.00492 16.5424 4.58604 16.5424 9.32153C16.5424 12.177 14.8061 14.2301 12.9328 15.0364C13.7697 15.4061 14.1373 16.0118 14.6692 17.1524L18.3101 25.353H12.1272L9.11985 18.0924C8.75224 17.2507 8.21647 16.8496 7.317 16.8496H5.74488V25.353H0V3.00492H7.95445ZM10.6607 9.96264C10.6607 7.94494 9.59305 7.50836 7.48516 7.50836H5.74879V12.7866H7.91925C9.62434 12.7866 10.6607 11.7797 10.6607 9.96264Z" fill="#574143"/>
<path d="M17.3127 17.2232C17.3127 12.35 20.2184 7.64602 25.9007 7.64602C29.4087 7.64602 31.7473 9.36087 31.7473 12.9243C31.7473 17.762 26.5343 18.8043 22.9911 19.0089C23.2258 20.4523 24.2621 21.7306 26.2996 21.7306C27.903 21.7306 29.3735 20.9912 30.4098 20.2871L31.9155 23.9843C31.7473 24.1534 29.2092 25.8997 25.4979 25.8997C19.6514 25.8997 17.3088 22.3363 17.3088 17.2271L17.3127 17.2232ZM26.9371 12.9558C26.9371 12.1141 26.4013 11.5792 25.5683 11.5792C23.8984 11.5792 22.8621 13.1603 22.7604 15.4769C24.5633 15.3746 26.9371 14.6037 26.9371 12.9558Z" fill="#574143"/>
<path d="M32.9519 19.6775V8.18486H38.5677V19.0049C38.5677 20.6175 38.7359 21.4907 39.9717 21.4907C41.8762 21.4907 42.3455 18.8004 42.3455 16.0472C42.3455 13.4946 41.7785 10.47 41.2075 8.18092H46.6864C47.3552 10.3992 47.8245 13.4238 47.8245 15.9095C47.8245 22.3638 44.8836 25.7896 39.3381 25.7896C34.962 25.7896 32.9558 23.8073 32.9558 19.6735L32.9519 19.6775Z" fill="#574143"/>
<path d="M48.6145 3.2409C48.6145 1.48279 49.9363 0 52.0325 0C54.1287 0 55.4896 1.48279 55.4896 3.2409C55.4896 4.99902 54.0895 6.48181 52.0325 6.48181C49.9754 6.48181 48.6145 5.11308 48.6145 3.2409Z" fill="#574143"/>
<path d="M54.8756 8.18092H49.2598V25.353H54.8756V8.18092Z" fill="#574143"/>
<path d="M55.8181 24.0118L57.2534 20.0787C58.4892 20.8535 60.73 21.7935 62.2982 21.7935C63.2016 21.7935 63.8351 21.3923 63.8351 20.5152C63.8351 19.5084 62.9005 19.1701 61.696 18.7689C59.2244 17.998 56.3813 17.1209 56.3813 13.4907C56.3813 9.86037 59.4903 7.64209 63.0647 7.64209C65.7397 7.64209 68.1096 8.64897 69.7482 10.1632L67.2414 13.3884C65.771 12.2439 64.4022 11.6421 63.3658 11.6421C62.4312 11.6421 61.8289 12.1455 61.8289 12.9518C61.8289 13.9272 62.7988 14.3284 64.1363 14.8004C66.5766 15.6421 69.3845 16.6136 69.3845 20.1455C69.3845 23.9095 66.6431 25.8918 62.5329 25.8918C59.459 25.8918 56.8506 24.7827 55.8181 24.0118Z" fill="#574143"/>
<path d="M70.0571 17.2232C70.0571 12.35 72.9628 7.64602 78.6451 7.64602C82.1531 7.64602 84.4917 9.36087 84.4917 12.9243C84.4917 17.762 79.2787 18.8043 75.7355 19.0089C75.9702 20.4523 77.0065 21.7306 79.044 21.7306C80.6474 21.7306 82.1179 20.9912 83.1542 20.2871L84.6598 23.9843C84.4917 24.1534 81.9536 25.8997 78.2423 25.8997C72.3958 25.8997 70.0532 22.3363 70.0532 17.2271L70.0571 17.2232ZM79.6815 12.9558C79.6815 12.1141 79.1457 11.5792 78.3127 11.5792C76.6428 11.5792 75.6065 13.1603 75.5048 15.4769C77.3077 15.3746 79.6815 14.6037 79.6815 12.9558Z" fill="#574143"/>
<path d="M111.01 17.5261C111.01 11.6106 114.084 7.64602 120.068 7.64602C121.237 7.64602 123.845 7.94887 126.516 8.99115V21.7267L126.884 25.3569H122.172L121.906 23.7758L121.737 23.7404C120.834 25.0501 119.465 25.8918 117.561 25.8918C112.414 25.8918 111.01 21.8604 111.01 17.5221V17.5261ZM121.002 19.9449V11.8466C120.599 11.6775 120.068 11.5792 119.465 11.5792C117.26 11.5792 116.524 14.234 116.524 17.1249C116.524 19.7129 116.994 21.8643 118.93 21.8643C120.232 21.8643 121.002 20.9243 121.002 19.9489V19.9449Z" fill="#574143"/>
<path d="M127.846 19.473V1.99803H133.462V8.18092H137.639V12.5152H133.462V19.237C133.462 21.0855 134.33 21.6559 135.468 21.6559C136.102 21.6559 136.739 21.3884 137.271 21.0855L138.507 24.649C137.471 25.353 135.601 25.8918 133.728 25.8918C128.249 25.8918 127.846 22.6313 127.846 19.473Z" fill="#574143"/>
<path d="M138.397 17.2232C138.397 12.35 141.303 7.64602 146.985 7.64602C150.493 7.64602 152.832 9.36087 152.832 12.9243C152.832 17.762 147.619 18.8043 144.076 19.0089C144.31 20.4523 145.347 21.7306 147.384 21.7306C148.988 21.7306 150.458 20.9912 151.494 20.2871L153 23.9843C152.832 24.1534 150.294 25.8997 146.582 25.8997C140.736 25.8997 138.393 22.3363 138.393 17.2271L138.397 17.2232ZM148.022 12.9558C148.022 12.1141 147.486 11.5792 146.653 11.5792C144.983 11.5792 143.947 13.1603 143.845 15.4769C145.648 15.3746 148.022 14.6037 148.022 12.9558Z" fill="#574143"/>
<path d="M114.194 26.9735C113.673 27.3117 113.059 27.6145 112.422 27.6539C111.288 27.7207 110.388 27.1976 110.279 25.3569L109.579 12.35L109.466 10.1318C109.262 6.13963 105.985 3.00885 102.012 3.00885C97.7059 3.00885 94.2958 6.66273 94.5617 10.9813L95.4533 25.353H100.866L100.056 9.40806C100.005 8.39331 100.717 7.44936 101.722 7.35103C102.79 7.24484 103.705 8.05113 103.768 9.10521L104.687 25.9154C104.87 29.0659 105.457 32.2989 110.924 31.9764C112.794 31.8663 114.628 31.2252 115.625 30.4582L114.186 26.9735H114.194Z" fill="#574143"/>
<path d="M92.8918 7.64602C88.5861 7.64602 85.1798 11.3038 85.4575 15.6224L86.0832 25.3569H91.4957L90.9286 13.9744C90.8739 12.8889 91.7342 11.9803 92.8136 11.9803C93.8069 11.9803 94.6321 12.7552 94.6986 13.7542L95.4534 25.353H100.866L100.338 14.7611C100.138 10.7729 96.8651 7.64209 92.8957 7.64209L92.8918 7.64602Z" fill="#574143"/>
</g>
<defs>
<clipPath id="clip0_1_1539">
<rect width="153" height="32" fill="white"/>
</clipPath>
</defs>
</svg>
