<svg width="35" height="35" viewBox="0 0 35 35" fill="none" xmlns="http://www.w3.org/2000/svg">
<path d="M25.7736 13.815C26.0397 13.2727 25.8157 12.6174 25.2734 12.3514C24.731 12.0853 24.0757 12.3093 23.8097 12.8516L21.68 17.1932C21.0199 18.5389 19.0798 18.4731 18.5123 17.0859C17.2302 13.9518 12.8473 13.8034 11.356 16.8435L9.22636 21.185C8.96033 21.7273 9.18432 22.3826 9.72665 22.6486C10.269 22.9147 10.9243 22.6907 11.1903 22.1484L13.32 17.8068C13.9801 16.4611 15.9202 16.5269 16.4877 17.9141C17.7698 21.0482 22.1527 21.1966 23.644 18.1566L25.7736 13.815Z" fill="#574143"/>
<path fill-rule="evenodd" clip-rule="evenodd" d="M24.0093 3.46169C22.3437 3.28123 20.2443 3.28124 17.566 3.28125H17.434C14.7557 3.28124 12.6563 3.28123 10.9907 3.46169C9.29095 3.64584 7.91373 4.02839 6.73784 4.88272C6.02597 5.39993 5.39993 6.02597 4.88272 6.73784C4.02839 7.91373 3.64584 9.29095 3.46169 10.9907C3.28123 12.6563 3.28124 14.7557 3.28125 17.434V17.566C3.28124 20.2443 3.28123 22.3437 3.46169 24.0093C3.64584 25.709 4.02839 27.0863 4.88272 28.2622C5.39993 28.974 6.02596 29.6001 6.73784 30.1173C7.91373 30.9716 9.29095 31.3542 10.9907 31.5383C12.6563 31.7188 14.7557 31.7188 17.4339 31.7188H17.566C20.2442 31.7188 22.3437 31.7188 24.0093 31.5383C25.709 31.3542 27.0863 30.9716 28.2622 30.1173C28.974 29.6001 29.6001 28.974 30.1173 28.2622C30.9716 27.0863 31.3542 25.709 31.5383 24.0093C31.7188 22.3437 31.7188 20.2443 31.7188 17.5661V17.434C31.7188 14.7558 31.7188 12.6563 31.5383 10.9907C31.3542 9.29095 30.9716 7.91373 30.1173 6.73784C29.6001 6.02596 28.974 5.39993 28.2622 4.88272C27.0863 4.02839 25.709 3.64584 24.0093 3.46169ZM8.02362 6.65245C8.76446 6.1142 9.7127 5.80045 11.2263 5.63646C12.7604 5.47025 14.7415 5.46875 17.5 5.46875C20.2585 5.46875 22.2396 5.47025 23.7737 5.63646C25.2873 5.80045 26.2355 6.1142 26.9764 6.65245C27.5026 7.03473 27.9653 7.49745 28.3476 8.02362C28.8858 8.76446 29.1996 9.71269 29.3635 11.2263C29.5297 12.7604 29.5312 14.7415 29.5312 17.5C29.5312 20.2585 29.5297 22.2396 29.3635 23.7737C29.1996 25.2873 28.8858 26.2355 28.3476 26.9764C27.9653 27.5026 27.5026 27.9653 26.9764 28.3476C26.2355 28.8858 25.2873 29.1996 23.7737 29.3635C22.2396 29.5297 20.2585 29.5312 17.5 29.5312C14.7415 29.5312 12.7604 29.5297 11.2263 29.3635C9.71269 29.1996 8.76446 28.8858 8.02362 28.3476C7.49745 27.9653 7.03473 27.5026 6.65245 26.9764C6.1142 26.2355 5.80045 25.2873 5.63646 23.7737C5.47025 22.2396 5.46875 20.2585 5.46875 17.5C5.46875 14.7415 5.47025 12.7604 5.63646 11.2263C5.80045 9.7127 6.1142 8.76446 6.65245 8.02362C7.03473 7.49745 7.49745 7.03473 8.02362 6.65245Z" fill="#574143"/>
</svg>
