<svg width="188" height="168" viewBox="0 0 188 168" fill="none" xmlns="http://www.w3.org/2000/svg">
<path d="M67.1165 78.8827L51.6182 33.0546C50.8961 30.9437 52.8959 28.944 55.0067 29.7217L55.3956 29.8328C56.1733 30.1105 56.7843 30.7215 57.0621 31.4992L72.1714 77.1607C72.5047 78.2161 72.1714 79.3827 71.2826 80.0492C69.8384 81.2158 67.7275 80.5492 67.1165 78.8272V78.8827Z" fill="#86244F"/>
<path d="M9.06811 65.2176C9.34586 64.4399 10.068 50.1638 21.5667 49.3861C33.0654 48.6084 31.7877 61.6625 31.7877 61.6625C31.7877 61.6625 34.343 54.4966 40.4534 58.8294C46.5638 63.1623 44.0086 69.0505 44.0086 69.0505C44.0086 69.0505 48.6192 66.9952 51.9521 71.328C51.9521 71.328 52.0077 71.4391 52.0632 71.4391C54.2296 74.3277 52.0632 78.4383 48.5081 78.3828L5.12412 77.7162C1.51342 77.7162 -0.875196 73.8833 0.735732 70.6614C2.34666 67.4396 1.68007 69.0505 2.40221 68.2728C6.2351 64.1622 9.06811 65.2176 9.06811 65.2176Z" fill="#BAC6EB"/>
<path d="M90.6142 164.151C88.4478 163.762 87.1146 161.485 87.6701 159.374C88.5589 155.985 90.7808 151.208 96.5024 149.93C105.612 147.875 107.668 152.263 107.668 152.263C107.668 152.263 101.502 136.154 116.167 132.599C130.832 129.099 131.387 143.153 131.387 143.153C131.387 143.153 135.22 133.765 146.052 137.876C156.884 141.987 153.107 151.93 153.107 151.93C153.107 151.93 159.828 149.264 165.439 154.874C171.049 160.485 168.994 159.207 170.05 161.207C171.105 163.207 169.383 167.317 166.272 167.151C146.997 166.262 110.779 167.928 90.6142 164.095V164.151Z" fill="#BAC6EB"/>
<path d="M25.5663 12.1128L21.7334 19.2787C21.5668 19.612 21.289 19.8897 20.9557 20.0564L14.1232 23.6115C12.8455 24.2781 12.79 26.1112 14.0676 26.8334L20.7335 30.7218C20.9557 30.8329 21.1779 31.0551 21.3446 31.2773L26.8995 39.3875C27.7327 40.6096 29.5659 40.3874 30.1213 39.0542L33.121 31.6662C33.2876 31.2773 33.5098 30.9996 33.8431 30.7774L40.3979 26.7778C41.5645 26.0557 41.5645 24.3892 40.3979 23.6671L33.4543 19.3342C33.2321 19.1676 33.0099 19.0009 32.8988 18.7787L28.7326 12.1684C28.0105 10.9463 26.2329 11.0574 25.5663 12.2795V12.1128Z" fill="#574143"/>
<path d="M168.494 116.045L166.216 120.378C166.105 120.6 165.939 120.711 165.772 120.822L161.661 122.989C160.884 123.378 160.884 124.489 161.661 124.933L165.661 127.266C165.828 127.322 165.939 127.488 165.994 127.599L169.327 132.488C169.827 133.21 170.938 133.099 171.271 132.266L173.049 127.822C173.16 127.599 173.271 127.433 173.493 127.266L177.437 124.878C178.16 124.433 178.16 123.433 177.437 122.989L173.271 120.378C173.105 120.267 172.993 120.156 172.938 120.045L170.438 116.045C169.994 115.323 168.938 115.379 168.549 116.101L168.494 116.045Z" fill="#574143"/>
<path d="M80.0597 30.8328C87.3306 30.8328 93.2249 24.9385 93.2249 17.6676C93.2249 10.3967 87.3306 4.50244 80.0597 4.50244C72.7888 4.50244 66.8945 10.3967 66.8945 17.6676C66.8945 24.9385 72.7888 30.8328 80.0597 30.8328Z" fill="#FD85B2"/>
<path d="M72.1161 27.1109C72.1161 27.1109 58.0621 3.94693 53.3405 1.00282C48.6743 -1.94129 50.3963 2.4471 50.6741 3.33589C50.9518 4.22467 52.7294 7.44653 52.7294 7.44653C52.7294 7.44653 48.0633 10.1129 48.341 11.8349C48.6188 13.5569 65.9501 36.4432 65.9501 36.4432C65.9501 36.4432 68.9498 47.5531 70.1163 53.719C71.2829 59.885 76.1156 73.1057 76.1156 73.1057C76.1156 73.1057 88.5031 55.4966 90.5584 52.2747C92.6137 49.0529 95.5579 42.8869 95.5579 42.8869C95.5579 42.8869 92.8915 39.054 89.1141 37.332C85.2813 35.5544 82.0594 34.9989 82.0594 34.9989L83.5037 29.1107L76.7822 23.8335L72.1161 27.0554V27.1109Z" fill="#FD85B2"/>
<path d="M55.9512 31.2215L61.2283 30.4994L73.5603 72.4946L69.7274 76.1053C69.7274 76.1053 56.6178 30.4994 56.0067 31.2215H55.9512Z" fill="#E5E3D3"/>
<path d="M68.6172 77.9383L97.6694 30.7215L104.724 35.1099L97.8916 44.5533L106.668 36.6653L117.445 42.3868L68.6172 77.9383Z" fill="#574143"/>
<path d="M186.77 74.1609L173.05 87.326L171.05 89.2702L147.33 112.101C146.219 113.156 144.553 113.49 143.109 112.934L88.9481 91.3811L84.8375 89.7702L69.9503 83.8264C67.1173 82.7155 66.5618 78.9936 68.8948 77.105L112.89 41.4424C114.001 40.5536 115.501 40.3314 116.834 40.8313L185.493 67.6616C188.159 68.717 188.881 72.2166 186.77 74.2164V74.1609Z" fill="#86244F"/>
<path d="M22.7883 112.323C27.6969 112.323 31.6761 108.344 31.6761 103.435C31.6761 98.5268 27.6969 94.5476 22.7883 94.5476C17.8796 94.5476 13.9004 98.5268 13.9004 103.435C13.9004 108.344 17.8796 112.323 22.7883 112.323Z" fill="#FD85B2"/>
<path d="M20.678 109.102L20.067 111.768C20.067 111.768 18.7894 112.046 17.6784 112.546C16.5674 113.046 15.623 113.934 15.623 113.934L19.9003 131.988L30.6213 115.212L23.8999 111.935L24.0665 109.268L20.6225 109.102H20.678Z" fill="#FD85B2"/>
<path d="M8.06836 103.102L13.1233 103.602L20.067 131.932L8.06836 103.102Z" fill="#E5E3D3"/>
<path d="M17.5118 133.877L5.56874 104.547C5.01325 103.213 6.23533 101.825 7.62406 102.214H7.90181C8.40175 102.436 8.84615 102.825 9.06834 103.325L20.7892 132.543C21.067 133.21 20.9003 133.988 20.3448 134.488C19.456 135.321 18.0118 134.988 17.5674 133.877H17.5118Z" fill="#525E7F"/>
<path d="M18.2891 132.988L35.5093 104.158L39.5089 105.38L36.8981 109.657L41.0087 105.435L43.8417 106.546L42.2308 108.602L45.0638 106.602L48.4523 107.046L18.2891 132.988Z" fill="#574143"/>
<path d="M95.4472 126.044L86.4483 135.821L84.8373 137.598L71.1722 152.43C70.5056 153.152 69.4502 153.43 68.4503 153.152L36.2318 142.542L33.9543 141.82L19.5115 137.043C17.6228 136.432 17.1228 133.988 18.5671 132.654L45.8973 107.657C46.5639 107.046 47.5638 106.824 48.4526 107.102L51.8966 108.213L54.563 109.101L63.6175 112.046L66.3394 112.934L94.2807 121.933C96.0583 122.489 96.6693 124.766 95.3917 126.155L95.4472 126.044Z" fill="#525E7F"/>
<g opacity="0.4">
<path d="M162.606 81.9377C162.606 81.9377 162.55 81.8821 162.495 81.8266C165.272 80.1601 167.994 78.1603 169.827 75.6606C171.827 72.9387 172.549 68.8836 168.994 67.0505C165.439 65.2729 159.939 65.6062 157.384 68.8836C154.829 72.161 155.495 76.8271 157.717 80.049C157.995 80.4378 158.328 80.8267 158.606 81.2155C157.495 81.8266 156.329 82.3265 155.107 82.7709C148.663 85.2151 141.886 85.2706 135.164 83.993C132.165 83.4375 129.276 82.4376 126.554 81.16C124.166 80.049 121.777 78.8269 119.611 77.216C119.722 77.1049 119.888 76.9938 119.999 76.8827C123.055 74.2719 125.777 71.2722 128.165 68.0504C130.276 65.1063 132.165 61.44 131.776 57.6627C131.443 54.1631 128.776 51.7189 125.277 51.5522C121.61 51.3856 118.055 53.3854 115.667 55.9962C110.778 61.3289 109.612 69.4946 114.167 75.3829C114.667 76.0494 115.222 76.6605 115.833 77.216C106.779 83.993 95.9466 87.8259 84.7812 89.659L88.8919 91.2699C99.2796 89.1591 109.278 85.2151 117.666 78.7714C119.833 80.4378 122.333 81.771 124.777 82.9376C128.165 84.604 131.776 85.8261 135.498 86.4927C143.886 87.937 152.051 87.2704 159.717 83.3264C159.884 83.2153 160.05 83.1597 160.273 83.0487C163.217 85.8817 167.05 87.937 171.105 89.1591L173.105 87.2148C169.272 86.1594 165.716 84.3818 162.661 81.8266L162.606 81.9377ZM116.889 74.994C112.334 70.1057 112.834 62.8843 117.166 57.996C119.166 55.7184 122.388 53.6631 125.554 54.052C129.776 54.5519 129.887 58.9958 128.776 62.1622C126.888 67.4949 122.221 72.2721 117.722 75.8828C117.444 75.6051 117.111 75.3273 116.833 75.0496L116.889 74.994ZM158.106 73.1609C158.717 68.828 163.05 67.8282 166.772 68.8281C172.049 70.2168 167.327 75.3273 164.994 77.216C163.661 78.2714 162.217 79.2713 160.773 80.1601C159.051 78.2159 157.773 75.8828 158.162 73.1609H158.106Z" fill="white"/>
</g>
<g opacity="0.4">
<path d="M54.5629 108.991C53.8963 109.491 53.2852 110.102 52.7853 110.602C50.6744 112.712 48.7302 115.046 47.0082 117.49C41.6754 124.933 37.9536 133.488 36.2316 142.431L33.9541 141.709C34.8429 137.21 36.1761 132.821 38.0092 128.6C40.7311 122.211 44.5085 116.268 49.119 111.046C49.9523 110.102 50.8966 109.046 51.8965 108.102L54.5629 108.991Z" fill="white"/>
<path d="M85.4488 134.21C82.4492 129.71 77.4497 123.6 71.5615 123.211C70.2283 123.155 68.8952 123.322 67.6175 123.766C67.6175 121.156 67.4509 118.489 67.0065 115.879C66.8398 114.879 66.6176 113.823 66.3399 112.768L63.618 111.879C64.0624 113.212 64.3401 114.601 64.6179 115.823C65.1734 118.767 65.3956 121.822 65.2845 124.877C62.0071 126.822 59.3407 130.21 57.8409 133.321C56.0077 137.209 54.2302 144.597 59.5629 146.597C60.0628 146.764 60.6183 146.486 60.8961 146.042C64.6734 140.209 66.9509 133.488 67.5064 126.544C69.895 125.433 72.4503 125.266 75.0056 126.766C79.1162 129.266 82.4492 133.099 84.8378 137.487L86.4487 135.71C86.1154 135.154 85.7821 134.654 85.4488 134.099V134.21ZM59.5073 143.986C56.2299 141.542 59.6184 132.654 65.0067 128.21C64.2846 133.765 62.3959 139.154 59.5073 143.986Z" fill="white"/>
</g>
<path d="M88.059 161.651C87.8368 161.651 87.6702 161.484 87.6702 161.318C87.6702 161.262 87.5035 159.818 88.1146 157.874C88.6701 156.096 90.0588 153.541 93.2806 151.541C97.7246 148.819 101.446 149.041 103.835 149.764C105.279 150.208 106.39 150.819 107.057 151.319C106.779 149.986 106.39 147.542 106.446 144.875C106.557 139.542 108.334 135.876 111.612 134.21C119.444 130.321 123.222 132.266 123.388 132.377C123.555 132.488 123.666 132.71 123.555 132.932C123.444 133.099 123.222 133.21 122.999 133.099C122.999 133.099 119.389 131.266 112.001 134.987C104.668 138.654 108.001 152.097 108.057 152.208C108.057 152.374 108.057 152.541 107.89 152.652C107.723 152.763 107.557 152.708 107.446 152.652C107.223 152.43 101.669 147.375 93.725 152.319C88.0035 155.874 88.4479 161.096 88.5034 161.318C88.5034 161.54 88.3923 161.707 88.1701 161.762L88.059 161.651Z" fill="#574143"/>
<path d="M2.51313 77.1055C2.40203 76.9944 -0.208786 74.4391 0.0134113 71.5505C0.12451 70.1618 0.846648 68.9397 2.17983 67.9398C5.84608 65.2179 7.84585 64.8291 8.67909 64.7735C8.84573 63.2182 9.56787 57.4966 13.0119 53.497C16.9559 48.8865 23.3441 49.1087 23.6218 49.1087V49.8863C23.5107 49.8863 17.2892 49.7197 13.623 53.997C9.90117 58.3298 9.45678 65.1068 9.45678 65.1624V65.6623L8.95683 65.5512C8.95683 65.5512 7.12371 65.2179 2.62422 68.5509C1.45769 69.3841 0.846649 70.4396 0.735551 71.5505C0.568903 74.0502 2.95752 76.4944 3.01307 76.4944L2.45758 77.0499L2.51313 77.1055Z" fill="#574143"/>
<path d="M83.0043 19.3896C81.1156 19.3896 78.9492 19.0563 77.1716 17.9453C73.1721 15.3901 71.6723 11.4461 71.6167 11.2794C71.5612 11.0572 71.6167 10.835 71.8389 10.7795C72.0611 10.7239 72.2833 10.7795 72.3389 11.0017C72.3389 11.0017 73.8387 14.8901 77.616 17.2788C81.3934 19.6674 87.226 18.0564 87.2816 18.0564C87.5038 18.0009 87.726 18.112 87.7815 18.3342C87.8371 18.5564 87.726 18.7786 87.5038 18.8341C87.3371 18.8341 85.3929 19.3896 83.0043 19.3896Z" fill="#574143"/>
<path d="M77.6159 11.1681C77.1715 11.1681 76.7826 11.0014 76.5049 10.7237C75.5606 9.89043 75.5605 8.11285 75.5605 8.0573C75.5605 7.83511 75.7272 7.66846 75.9494 7.66846C76.1716 7.66846 76.3382 7.83511 76.3382 8.0573C76.3382 8.44615 76.4493 9.66823 77.0048 10.1682C77.227 10.3348 77.4492 10.4459 77.7825 10.3904C79.449 10.2237 80.6155 8.89054 80.6711 8.83499C80.8377 8.66834 81.0599 8.66834 81.2266 8.83499C81.3932 9.00164 81.3932 9.22383 81.2266 9.39048C81.2266 9.44603 79.8378 10.9459 77.8381 11.1681C77.7825 11.1681 77.6714 11.1681 77.6159 11.1681Z" fill="#574143"/>
<path d="M85.8369 15.1122C85.7258 15.1122 85.6147 15.1122 85.5036 15.1122C83.0594 14.89 83.2816 10.8905 83.2816 10.7238C83.2816 10.5016 83.5038 10.335 83.6705 10.335C83.8927 10.335 84.0593 10.5572 84.0593 10.7238C84.0593 10.7238 83.9482 14.1123 85.5591 14.279C87.2812 14.4456 87.8367 12.9458 87.8367 12.8902C87.8922 12.668 88.1144 12.5569 88.3366 12.668C88.5588 12.7236 88.6699 12.9458 88.5588 13.168C88.3366 13.8901 87.4478 15.1122 85.7813 15.1122H85.8369Z" fill="#574143"/>
<path d="M52.119 17.112C51.9523 17.112 51.7857 17.112 51.619 17.0009C49.897 16.3899 48.175 12.4459 47.9528 12.0015C47.8417 11.7793 47.9528 11.5571 48.175 11.5016C48.3972 11.3905 48.6194 11.5016 48.6749 11.7238C49.1748 12.8347 50.6747 15.8344 51.8968 16.2788C52.119 16.3343 52.2301 16.2788 52.3412 16.2788C52.5078 16.1677 52.6189 16.0566 52.6744 15.8899C52.7855 15.2789 52.2301 14.1679 51.619 13.2791C51.3413 12.9458 51.1191 12.6681 51.0635 12.557C50.9524 12.3903 50.9524 12.1681 51.1191 12.0015C51.2857 11.8904 51.5079 11.8904 51.6746 12.057C51.7301 12.1126 51.9523 12.3903 52.2301 12.7792C53.0077 13.7791 54.1187 14.8345 54.7853 14.8901C54.8964 14.8901 55.0075 14.8901 55.1186 14.7234C55.2297 14.6123 55.2853 14.4457 55.2297 14.2235C55.1186 13.3347 53.841 12.1126 53.0633 11.3905C52.8966 11.2794 52.7855 11.1683 52.6744 11.0572C52.5078 10.9461 52.5078 10.6683 52.6189 10.5017C52.73 10.335 53.0077 10.2795 53.1744 10.4461C53.2299 10.4461 53.3966 10.6128 53.5632 10.7794C55.4519 12.2792 57.1184 13.168 57.4517 12.9458C57.4517 12.9458 57.4517 12.9458 57.4517 12.7792C57.4517 11.446 54.3965 8.94629 52.5078 7.72421C52.3412 7.61311 52.2856 7.33536 52.3967 7.16872C52.5078 7.00207 52.7855 6.94652 52.9522 7.05762C53.5077 7.39091 58.2849 10.6128 58.2849 12.7792C58.2849 14.9456 58.0072 13.5569 57.785 13.668C57.3406 13.8902 56.5629 13.668 55.7297 13.168C55.8963 13.5013 56.0074 13.7791 56.063 14.1124C56.063 14.5012 56.0074 14.8901 55.7297 15.2233C55.4519 15.5011 55.1186 15.6677 54.7853 15.6677C54.3409 15.6677 53.8965 15.39 53.3966 15.0567C53.5077 15.39 53.5077 15.7233 53.3966 16.001C53.2855 16.3899 53.0633 16.7232 52.6744 16.9454C52.5078 17.0565 52.3412 17.0565 52.119 17.0565V17.112Z" fill="#574143"/>
<path d="M73.5601 72.8832C73.449 72.8832 73.3379 72.8832 73.2268 72.7166C73.1157 72.5499 73.1157 72.2722 73.2824 72.1611C79.9483 66.7728 113.222 39.8314 115.222 39.8314C117.222 39.8314 158.162 56.6073 162.828 58.5515C163.05 58.6071 163.105 58.8848 163.05 59.0514C162.994 59.2736 162.717 59.3292 162.55 59.2736C144.33 51.8301 116.722 40.6647 115.222 40.6091C113.5 40.9424 89.5028 60.0513 73.7823 72.7721C73.7268 72.8277 73.6157 72.8832 73.5601 72.8832Z" fill="#574143"/>
<path d="M22.0111 130.433C21.9 130.433 21.7889 130.433 21.7334 130.321C21.5667 130.155 21.5667 129.933 21.7334 129.766C25.5663 125.933 44.7308 106.88 47.1194 106.88C49.508 106.88 80.1156 116.99 81.3932 117.434C81.6154 117.49 81.7265 117.712 81.671 117.934C81.6154 118.156 81.3932 118.267 81.171 118.212C72.3387 115.268 49.008 107.713 47.1194 107.713C45.6751 107.713 33.2321 119.434 22.2889 130.377C22.2333 130.432 22.1222 130.488 22.0111 130.488V130.433Z" fill="#574143"/>
<path d="M19.7891 102.658C20.8322 102.658 21.6777 101.812 21.6777 100.769C21.6777 99.7261 20.8322 98.8805 19.7891 98.8805C18.746 98.8805 17.9004 99.7261 17.9004 100.769C17.9004 101.812 18.746 102.658 19.7891 102.658Z" fill="white"/>
<path d="M19.5665 101.991C20.3334 101.991 20.9552 101.37 20.9552 100.603C20.9552 99.8357 20.3334 99.214 19.5665 99.214C18.7995 99.214 18.1777 99.8357 18.1777 100.603C18.1777 101.37 18.7995 101.991 19.5665 101.991Z" fill="#574143"/>
<path d="M24.5664 103.213C25.6095 103.213 26.4551 102.368 26.4551 101.325C26.4551 100.282 25.6095 99.436 24.5664 99.436C23.5233 99.436 22.6777 100.282 22.6777 101.325C22.6777 102.368 23.5233 103.213 24.5664 103.213Z" fill="white"/>
<path d="M24.3995 102.547C25.1664 102.547 25.7882 101.925 25.7882 101.158C25.7882 100.391 25.1664 99.7696 24.3995 99.7696C23.6325 99.7696 23.0107 100.391 23.0107 101.158C23.0107 101.925 23.6325 102.547 24.3995 102.547Z" fill="#574143"/>
<path d="M26.1776 104.102C26.1776 104.102 25.2888 106.324 23.2335 107.379C22.6225 107.713 21.9003 107.935 21.0671 107.99C20.2339 107.99 19.5673 107.657 19.0673 107.046C17.9008 105.768 17.623 103.547 17.623 103.547C17.623 103.547 19.1229 103.713 21.6226 103.824C23.6779 103.935 26.1221 104.102 26.1221 104.102H26.1776Z" fill="#574143"/>
<path d="M23.2326 107.38C22.6216 107.713 21.8994 107.935 21.0662 107.991C20.2329 107.991 19.5663 107.658 19.0664 107.046C19.6219 106.658 20.6218 106.102 21.6217 106.324C22.3438 106.491 22.8993 106.935 23.2326 107.38Z" fill="#FE77B7"/>
</svg>
