<svg width="38" height="38" viewBox="0 0 38 38" fill="none" xmlns="http://www.w3.org/2000/svg">
<path d="M29.9866 21.4271C28.8996 20.4142 27.2861 20.4096 25.9588 20.8761C25.0121 19.3431 24.1621 17.7591 23.16 16.2648C22.004 14.5193 20.7295 12.8551 19.4202 11.2235C20.6805 10.0993 21.6673 8.48306 21.4896 6.73967C21.3254 4.66635 19.503 3.0202 17.5065 2.6572C15.1238 2.02764 12.3936 3.22831 11.3768 5.47263C10.4281 7.51501 10.9985 10.1766 12.8675 11.5276C10.7796 14.9912 8.57718 18.4011 6.65794 21.9657C5.28628 21.6391 3.73215 21.8073 2.66799 22.7997C0.364828 24.6631 0.645193 28.9869 3.46139 30.2378C6.65445 31.6225 10.2102 28.0076 9.40913 24.8362C9.17723 23.8002 8.41264 22.9972 7.60359 22.36C9.48792 18.8281 11.5887 15.4242 13.3642 11.8404C14.1763 12.2433 15.0603 12.4518 15.9596 12.5288C15.7955 14.2481 15.7393 15.9818 15.8543 17.706C15.966 19.5839 15.7728 21.4799 16.0894 23.34C15.3435 23.4955 14.5707 23.6984 13.9914 24.2266C11.9441 25.865 12.1908 29.4423 14.3271 30.9184C15.1896 31.4419 16.244 31.7458 17.2526 31.5469C19.5485 31.0734 21.3053 28.5294 20.5905 26.2382C20.1046 24.6667 18.6165 23.5992 17.01 23.3678C17.2493 21.8509 16.955 20.3256 16.9341 18.8034C16.737 16.6952 16.6209 14.5871 16.68 12.4768C17.4495 12.2852 18.1918 11.9987 18.8785 11.6085C19.8598 13.3749 21.0561 15.009 22.1226 16.721C23.1126 18.2549 23.902 19.8945 24.8177 21.4676C24.0692 22.0802 23.3091 22.751 22.9843 23.6911C22.3096 25.6936 23.0257 27.9604 24.4581 29.4749C25.0458 30.0815 25.9515 30.1172 26.7242 30.3225C28.6466 30.6628 30.4424 29.3373 31.4488 27.8199C32.7842 25.7163 31.6877 22.9805 29.9866 21.4271ZM16.7049 24.549C18.1643 24.5683 19.5699 25.722 19.7754 27.1707C19.9561 29.2306 17.7062 31.0421 15.7174 30.4093C13.8768 29.8217 13.0984 27.4121 14.0156 25.7993C14.5407 24.8772 15.6862 24.5159 16.7049 24.549ZM19.3209 9.93721C17.8852 11.4718 15.2853 12.0627 13.4719 10.8153C11.7547 9.64062 11.4119 7.03008 12.6168 5.39392C13.5162 4.1655 15.129 3.66256 16.6105 3.73196C18.3083 3.78709 19.9838 4.95525 20.4141 6.62735C20.6957 7.82711 20.1245 9.06307 19.3209 9.93721Z" fill="#8B1F33"/>
</svg>
