<svg width="26" height="27" viewBox="0 0 26 27" fill="none" xmlns="http://www.w3.org/2000/svg">
<path fill-rule="evenodd" clip-rule="evenodd" d="M24.0833 7.63983C24.9878 8.3405 25.5427 9.38138 25.6372 10.5141L25.6507 10.7854V21.7329C25.6507 24.5544 23.4218 26.8495 20.6285 26.998H17.942C16.6581 26.9723 15.6199 25.9733 15.5254 24.7178L15.5119 24.5274V20.6677C15.5119 20.2478 15.2 19.8982 14.7829 19.8293L14.6614 19.8158H11.0554C10.6248 19.8293 10.2738 20.1398 10.2198 20.5448L10.2063 20.6677V24.5153C10.2063 24.5949 10.1914 24.6894 10.1793 24.7569L10.1658 24.7853L10.1509 24.8784C9.99026 26.0273 9.04524 26.9035 7.87071 26.9858L7.6952 26.998H5.27864C2.45706 26.998 0.148504 24.7853 0 22.0029V10.7854C0.0121503 9.63654 0.513013 8.57001 1.35004 7.82749L9.76075 1.06381C11.4753 -0.298373 13.8784 -0.352375 15.6456 0.901808L15.8629 1.06381L24.0833 7.63983ZM23.7592 21.9489L23.774 21.7329V10.7976C23.7592 10.2184 23.5175 9.67706 23.099 9.2734L22.9235 9.12354L14.6883 2.53537C13.6622 1.71185 12.2042 1.6727 11.1242 2.38687L10.9203 2.53537L2.71211 9.15189C2.24095 9.50155 1.95744 10.0281 1.88994 10.5816L1.87509 10.7976V21.7329C1.87509 23.5284 3.27912 25 5.06252 25.108H7.69509C7.99209 25.108 8.2486 24.9068 8.28775 24.6233L8.3161 24.3803L8.3296 24.3114V20.6677C8.3296 19.2232 9.43663 18.0486 10.8542 17.9393H14.6613C16.1045 17.9393 17.279 19.0477 17.3883 20.4652V24.5274C17.3883 24.811 17.5908 25.0553 17.8609 25.108H20.3706C22.1796 25.108 23.6512 23.7188 23.7592 21.9489Z" fill="#F2EDEC"/>
</svg>
