<svg width="26" height="27" viewBox="0 0 26 27" fill="none" xmlns="http://www.w3.org/2000/svg">
<path d="M16.4565 11.353C17.7076 11.231 18.4695 10.0186 19.3998 9.28629C18.3492 14.4613 17.7878 19.7176 16.9778 24.9333C16.8094 25.7469 17.3788 26.3897 17.8199 27C19.4078 26.9349 21.0438 26.9268 22.5756 26.4467C23.4978 25.5517 23.5219 24.0952 23.8908 22.9154C24.9013 19.0178 24.9735 14.9657 25.3584 10.9706C25.2863 7.83795 25.6151 4.72157 26 1.62147C25.3023 1.10886 24.5645 0.636925 23.7224 0.400959C22.736 0.108036 21.5811 -0.298802 20.6348 0.335865C19.1672 1.34482 17.9402 2.6467 16.6811 3.89976C15.5503 5.02263 13.9864 5.62475 13 6.89409C13.1764 7.82168 13.9062 8.48075 14.4596 9.19679C15.1012 9.9291 15.6385 10.7916 16.4565 11.353ZM21.14 1.31227C22.2067 1.80862 23.3134 2.23173 24.4362 2.60602C24.4041 4.6158 24.0271 6.60116 24.0352 8.60281C24.0512 11.4018 23.5219 14.1602 23.2973 16.943C23.0728 19.6525 22.3831 22.2888 21.7816 24.9333C20.699 25.1448 19.6083 25.3157 18.5176 25.4622C19.1993 21.8657 19.1993 18.1879 19.7045 14.5589C19.913 12.9641 19.9611 11.3368 20.298 9.75822C20.4985 8.78181 20.8273 7.82981 20.8594 6.82086C20.33 6.74762 19.7606 6.78017 19.3196 7.12192C18.3331 7.84609 17.475 8.73299 16.5527 9.53039C15.7909 8.70858 15.045 7.87863 14.2671 7.08123C16.5367 5.12841 18.8624 3.25696 21.14 1.31227Z" fill="#8B1F33"/>
<path d="M4.90979 19.6749C4.8308 20.6443 4.7123 21.6303 4.83079 22.608C4.88609 23.0554 5.15466 23.594 5.64442 23.6271C6.51334 23.7846 7.39016 23.8674 8.25909 24C9.02532 22.8731 8.81995 21.4729 8.92264 20.1803C10.0917 20.0726 11.2687 20.0891 12.4378 19.94C12.7301 19.6251 12.9434 19.2109 12.9671 18.7634C13.0382 17.4377 12.9671 16.112 12.9987 14.7863C11.8375 14.1814 10.5262 14.256 9.286 14.3471C9.09642 12.6486 9.66517 10.9831 9.54668 9.29284C9.08852 8.87027 8.45658 9.01941 7.91153 9.05256C6.76613 9.17684 5.62073 9.20999 4.47533 9.30941C4.15146 9.29284 3.80388 9.45856 3.75649 9.83141C3.559 11.1157 3.71699 12.4166 3.57481 13.7091C2.42151 13.9991 1.14182 13.9577 0.138605 14.7283C0.0201159 16.1286 -0.256358 17.7526 0.596766 18.9623C1.97914 19.4843 3.45632 19.6003 4.90979 19.6749ZM4.25415 14.9271C5.31265 13.6843 4.95719 11.8366 4.7992 10.3286C6.00779 10.312 7.22429 10.2291 8.44078 10.2291C8.12481 12.1597 7.57185 14.2643 8.44867 16.1286C9.57827 15.9049 10.7316 15.7391 11.8928 15.7474C11.8138 16.6589 11.7585 17.5786 11.7111 18.4983C10.5025 18.6226 9.2781 18.7054 8.1011 18.9954C7.82463 20.0477 7.79303 21.1497 7.68244 22.2269C7.11369 22.202 6.56074 22.1771 5.99989 22.1357C6.04728 21.0337 6.22108 19.9234 6.13418 18.8214C5.78662 18.2497 5.06777 18.3823 4.52272 18.2911C3.48791 18.2497 2.461 18.0923 1.47359 17.794C1.4104 16.8991 1.3867 15.9877 1.3867 15.0846C2.33461 15.0763 3.33783 15.2668 4.25415 14.9271Z" fill="#8B1F33"/>
</svg>
