<svg width="21" height="31" viewBox="0 0 21 31" fill="none" xmlns="http://www.w3.org/2000/svg">
<path d="M20.0059 4.58105C20.2999 6.0967 19.891 7.4989 18.9111 8.84473C17.6304 10.6038 15.8584 11.9337 13.9238 13.291C13.1429 13.8389 12.3807 14.4371 11.6855 15.1348C10.924 15.8992 10.6078 16.8064 10.5518 17.7588C10.5016 18.6133 10.4508 18.9599 10.3994 19.3115C10.3426 19.6999 10.2839 20.0974 10.2246 21.0127C10.2226 21.0435 10.2186 21.0699 10.2158 21.0918C10.1792 21.0954 10.1318 21.0993 10.0713 21.0996C9.86218 21.1008 9.6478 21.0921 9.41211 21.0811C9.38312 21.0797 9.28337 21.0549 9.16113 20.9551C9.0379 20.8544 8.9884 20.7554 8.98047 20.7275C8.97217 20.6982 8.96449 20.6499 8.96777 20.543C8.96952 20.4864 8.97314 20.4285 8.97851 20.3467C8.98346 20.2713 8.98963 20.1753 8.99121 20.0742C8.99403 19.8938 8.99718 19.7863 8.99902 19.7236C9.00411 19.6962 9.00962 19.6766 9.01074 19.668C9.01457 19.6386 9.01678 19.6105 9.01855 19.5879C9.02521 19.5028 9.03158 19.3572 9.03906 19.1074C9.07461 17.9206 9.17079 16.7647 9.39844 15.6318C9.51003 15.0766 9.77016 14.611 10.2197 14.1572C11.2745 13.0927 12.5173 12.2506 13.8418 11.2803C14.485 10.8091 15.1904 10.2989 15.8252 9.70117C16.5672 9.0025 17.1705 8.18021 17.5322 7.17773C18.1733 5.40048 17.222 3.66454 15.7041 2.88867C14.7546 2.4035 13.7537 2.23164 12.7939 2.17676C10.6759 2.0557 8.771 2.64974 7.0166 3.45312C5.03297 4.36149 3.33501 5.61422 1.94629 7.22168C1.66599 6.96656 1.38984 6.71369 1.12305 6.45508C1.01383 6.34919 0.956372 6.27227 0.926758 6.22266C0.912779 6.1992 0.906212 6.18385 0.90332 6.17578C0.900858 6.1689 0.900469 6.16568 0.90039 6.16504C0.900381 6.16496 0.899636 6.1623 0.90039 6.15527C0.901195 6.14778 0.903335 6.13223 0.911133 6.10742C0.919335 6.08134 0.933549 6.04737 0.955078 6.00391L1.04687 5.84473L1.19922 5.62207C1.57156 5.1118 2.05212 4.65617 2.61133 4.21777C3.54151 3.48855 4.5941 2.91491 5.77051 2.43652C7.66848 1.70921 9.64149 1.31612 11.6934 1.07324C12.8795 0.932845 14.0352 0.855846 15.1816 0.926758C17.7205 1.08383 19.6059 2.51999 20.0059 4.58105ZM8.59277 18.8125C8.60102 18.8177 8.60986 18.8212 8.61719 18.8262C8.60977 18.8211 8.60088 18.8177 8.59277 18.8125ZM8.66797 18.8652C8.67508 18.8708 8.68174 18.8749 8.68652 18.8789C8.68942 18.8813 8.69253 18.8834 8.69531 18.8857C8.68769 18.8792 8.6779 18.8731 8.66797 18.8652ZM8.73633 18.9258C8.75105 18.94 8.76313 18.951 8.77051 18.959C8.77845 18.9676 8.78514 18.975 8.78906 18.9795C8.79229 18.9832 8.79494 18.9862 8.7959 18.9873C8.78737 18.9773 8.7643 18.9532 8.73633 18.9258Z" stroke="#8B1F33" stroke-width="1.8"/>
<path d="M8.22568 25.6489C9.09267 24.752 10.1301 24.6485 11.2527 24.8932C11.4868 24.9442 11.6492 25.0857 11.5268 25.3176C11.421 25.5181 11.5289 25.5524 11.6508 25.6147C13.3109 26.4626 13.0273 28.3764 12.0932 29.3336C11.1968 30.2521 9.77944 30.5365 8.76716 29.9769C7.73785 29.408 7.18661 28.0892 7.47231 26.8804C7.58656 26.397 7.86004 26.0104 8.22568 25.6489Z" fill="#8B1F33"/>
<path d="M15.2119 9.58702C15.1895 9.65954 15.1406 9.68995 15.0736 9.65095C15.0718 9.64992 15.1004 9.59669 15.1359 9.5542C15.1694 9.55062 15.1818 9.56064 15.2119 9.58702Z" fill="#8B1F33"/>
<path d="M3.45313 3.88679C3.50528 3.86683 3.51597 3.86908 3.45803 3.89371C3.44977 3.87883 3.45184 3.88421 3.45313 3.88679Z" fill="#8B1F33"/>
<path d="M11.0539 15.8119C11.0247 15.7971 11.0214 15.7747 11.0531 15.7621C11.0881 15.7482 11.0985 15.7646 11.0627 15.8019C11.0468 15.8074 11.0514 15.8106 11.0539 15.8119Z" fill="#8B1F33"/>
<path d="M12.0854 12.0607C12.0672 12.0627 12.0603 12.0561 12.0535 12.0494C12.0611 12.0437 12.069 12.0331 12.0762 12.0336C12.0834 12.034 12.09 12.0455 12.0854 12.0607Z" fill="#8B1F33"/>
<path d="M16.5838 10.7289C16.5897 10.7143 16.5937 10.6841 16.5972 10.6842C16.6328 10.6848 16.6369 10.6997 16.5937 10.7232C16.5776 10.7238 16.5816 10.7273 16.5838 10.7289Z" fill="#8B1F33"/>
<path d="M18.4395 8.63139C18.4377 8.62365 18.4337 8.61392 18.4298 8.60419C18.4256 8.60625 18.4214 8.60832 18.4302 8.62064C18.4432 8.6309 18.4373 8.6294 18.4395 8.63139Z" fill="#8B1F33"/>
<path d="M10.6715 27.943C10.388 28.316 10.118 28.6655 9.84985 29.0165C9.75089 29.146 9.68034 29.2987 9.8381 29.4155C9.98919 29.5274 10.1187 29.4335 10.2226 29.3002C10.8108 28.5454 11.4011 27.7923 12.0453 26.9689C12.1542 27.447 12.1398 27.8383 11.9744 28.2266C11.5333 29.2624 10.1874 29.8331 9.22646 29.402C8.97918 29.291 8.91832 29.2127 9.14404 28.9932C9.85055 28.3063 10.51 27.5737 11.152 26.826C11.2759 26.6818 11.4132 26.544 11.338 26.3109C11.7813 26.5113 11.779 26.5096 11.5191 26.8414C11.2388 27.199 10.9633 27.5604 10.6715 27.943Z" fill="#8B1F33"/>
<path d="M9.6084 26.3494C9.22683 26.8049 8.86139 27.2389 8.49514 27.6723C8.38673 27.8005 8.25486 27.9435 8.41296 28.0984C8.59924 28.2808 8.73381 28.1082 8.84771 27.9761C9.32515 27.4224 9.80146 26.8676 10.27 26.3064C10.6499 25.8514 10.6447 25.847 11.2158 26.217C10.939 26.2479 10.8194 26.4508 10.6763 26.6187C10.0704 27.3292 9.43694 28.0139 8.79818 28.6946C8.60002 28.9058 8.51368 28.8469 8.40235 28.6332C8.24862 28.3382 8.17061 28.0226 8.10812 27.7001C8.08099 27.56 8.13776 27.4645 8.23297 27.367C8.7526 26.8344 9.26556 26.2954 9.78361 25.7613C9.85492 25.6878 9.92523 25.5378 10.0524 25.6554C10.1894 25.7822 9.99529 25.8374 9.95143 25.9131C9.86415 26.0639 9.73568 26.1909 9.6084 26.3494Z" fill="#8B1F33"/>
</svg>
