<svg width="35" height="35" viewBox="0 0 35 35" fill="none" xmlns="http://www.w3.org/2000/svg">
<path d="M11.6667 13.4896C11.0626 13.4896 10.5729 13.9793 10.5729 14.5834C10.5729 15.1874 11.0626 15.6771 11.6667 15.6771H23.3333C23.9374 15.6771 24.4271 15.1874 24.4271 14.5834C24.4271 13.9793 23.9374 13.4896 23.3333 13.4896H11.6667Z" fill="#574143"/>
<path d="M11.6667 19.3229C11.0626 19.3229 10.5729 19.8126 10.5729 20.4167C10.5729 21.0207 11.0626 21.5104 11.6667 21.5104H23.3333C23.9374 21.5104 24.4271 21.0207 24.4271 20.4167C24.4271 19.8126 23.9374 19.3229 23.3333 19.3229H11.6667Z" fill="#574143"/>
<path d="M11.5938 25.1563C10.9897 25.1563 10.5 25.646 10.5 26.25C10.5 26.8541 10.9897 27.3438 11.5938 27.3438L23.3333 27.3438C23.9374 27.3438 24.4271 26.8541 24.4271 26.25C24.4271 25.646 23.9374 25.1563 23.3333 25.1563L11.5938 25.1563Z" fill="#574143"/>
<path fill-rule="evenodd" clip-rule="evenodd" d="M27.3848 2.88997C26.2571 2.32129 24.9477 2.06819 23.3806 1.94504C21.8268 1.82293 19.9142 1.82293 17.5445 1.82294H17.4703C15.3891 1.82294 13.6631 1.82294 12.2279 1.9042C10.7869 1.98579 9.56131 2.15217 8.49857 2.51886C7.85603 2.74057 7.27401 3.03486 6.73784 3.42441C6.02597 3.94162 5.39993 4.56765 4.88272 5.27953C4.02839 6.45542 3.64584 7.83264 3.46169 9.53238C3.28123 11.198 3.28124 13.2974 3.28125 15.9757V19.0243C3.28124 21.7026 3.28123 23.802 3.46169 25.4677C3.64584 27.1674 4.02839 28.5446 4.88272 29.7205C5.39993 30.4324 6.02597 31.0584 6.73784 31.5756C7.91373 32.43 9.29095 32.8125 10.9907 32.9967C12.6563 33.1771 14.7557 33.1771 17.4339 33.1771H17.566C20.2442 33.1771 22.3437 33.1771 24.0093 32.9967C25.709 32.8125 27.0863 32.43 28.2622 31.5756C28.974 31.0584 29.6001 30.4324 30.1173 29.7205C30.9716 28.5446 31.3542 27.1674 31.5383 25.4677C31.7188 23.8021 31.7188 21.7027 31.7188 19.0245V15.9757C31.7188 13.2975 31.7188 11.198 31.5383 9.53238C31.3542 7.83264 30.9716 6.45542 30.1173 5.27953C29.6001 4.56765 28.974 3.94162 28.2622 3.42441C27.9842 3.22245 27.6926 3.04515 27.3848 2.88997ZM17.5 4.01044C19.9233 4.01044 21.7509 4.01121 23.2092 4.12581C23.8441 4.1757 24.3885 4.24608 24.8634 4.34124C23.6701 5.51724 22.7112 6.41963 21.854 7.09466C20.7318 7.97848 19.8715 8.39991 19.0004 8.5379C18.358 8.63964 17.7036 8.63964 17.0612 8.5379C16.165 8.39595 15.2806 7.95413 14.1104 7.01755C13.2405 6.32126 12.2659 5.39661 11.053 4.19792C11.4449 4.15112 11.8754 4.11516 12.3516 4.0882C13.7181 4.01083 15.3832 4.01044 17.5 4.01044ZM23.2074 8.81321C24.3204 7.93672 25.5538 6.74343 27.0533 5.25097C27.5477 5.62197 27.984 6.06495 28.3476 6.56531C28.8858 7.30615 29.1996 8.25438 29.3635 9.768C29.5297 11.3021 29.5312 13.2831 29.5312 16.0417V18.9584C29.5312 21.7169 29.5297 23.6979 29.3635 25.232C29.1996 26.7457 28.8858 27.6939 28.3476 28.4347C27.9653 28.9609 27.5026 29.4236 26.9764 29.8059C26.2355 30.3442 25.2873 30.6579 23.7737 30.8219C22.2396 30.9881 20.2585 30.9896 17.5 30.9896C14.7415 30.9896 12.7604 30.9881 11.2263 30.8219C9.71269 30.6579 8.76446 30.3442 8.02362 29.8059C7.49745 29.4236 7.03473 28.9609 6.65245 28.4347C6.1142 27.6939 5.80045 26.7457 5.63646 25.232C5.47025 23.6979 5.46875 21.7169 5.46875 18.9584V16.0417C5.46875 13.2831 5.47025 11.3021 5.63646 9.768C5.80045 8.25438 6.1142 7.30615 6.65245 6.56531C7.03473 6.03914 7.49745 5.57642 8.02362 5.19413C8.20312 5.06372 8.39358 4.94736 8.59951 4.84348C10.2388 6.48026 11.5631 7.78059 12.7435 8.72539C14.0619 9.78056 15.2965 10.4732 16.719 10.6985C17.5881 10.8361 18.4735 10.8361 19.3426 10.6985C20.7253 10.4795 21.9303 9.819 23.2074 8.81321Z" fill="#574143"/>
</svg>
