<svg width="29" height="27" viewBox="0 0 29 27" fill="none" xmlns="http://www.w3.org/2000/svg">
<path d="M5.35167 9.13613C4.75654 8.62945 3.90557 8.92812 3.32712 9.30679C2.3371 9.95747 1.4138 10.6988 0.412647 11.3442C0.512762 12.9495 0.112312 14.5282 0.00663526 16.1282C-0.0656702 16.8589 0.468265 17.4509 0.863164 18.0216C1.73083 19.1363 2.30927 20.4323 3.19362 21.5416C4.0891 22.651 4.82884 23.883 5.85224 24.891C6.59754 25.6323 7.2928 26.5017 8.29951 26.9284C8.80009 27.1737 9.27284 26.731 9.66218 26.4697C10.7913 25.515 11.9926 24.6457 13.1106 23.675C16.5534 20.4749 19.8406 17.1362 23.2834 13.9415C24.6795 12.5495 26.0088 11.0935 27.2936 9.60546C28.1168 8.67212 28.367 7.44544 28.5784 6.27742C28.6952 5.52541 28.6062 4.75207 28.8342 4.02139C28.951 3.54672 29.1735 2.95471 28.7619 2.54937C28.1223 1.93603 27.3214 1.50402 26.6206 0.965346C26.1422 0.634675 25.7251 0.208003 25.1745 0C24.863 0.0160002 24.5794 0.138668 24.3569 0.336004C22.5381 1.82936 20.9529 3.54138 19.251 5.1414C17.2153 7.06676 15.2909 9.10412 13.461 11.2055C12.432 12.3522 11.4921 13.5789 10.3018 14.5815C8.29394 13.0935 7.25942 10.7255 5.35167 9.13613ZM8.25501 25.6804C7.1593 24.6883 6.02466 23.7123 5.15699 22.5176C4.35607 21.435 3.44947 20.4269 2.77648 19.2589C2.36489 18.5336 1.91438 17.8296 1.39156 17.1736C1.13571 16.8002 0.774186 16.4216 0.824243 15.9416C0.863177 14.9655 0.98553 13.9949 1.07452 13.0242C1.60847 14.9709 2.88773 16.5869 3.989 18.2616C4.72874 19.4936 5.71875 20.5549 6.61422 21.6803C7.16486 22.363 7.99915 22.747 8.73889 23.2163C8.56091 24.0323 8.35512 24.8483 8.25501 25.6804ZM9.66775 15.8936C10.1071 16.1549 10.7134 16.1389 11.1139 15.8242C11.7924 15.3229 12.2985 14.6562 12.8381 14.0269C14.9182 11.4722 17.0596 8.94412 19.4123 6.60809C21.2644 4.77873 23.022 2.85337 25.0187 1.15735C25.9142 1.99469 26.9265 2.70404 27.8776 3.47738C26.7096 5.94675 24.5182 7.74944 22.5826 9.65346C18.0719 13.7975 13.5834 17.9522 8.86683 21.8776C8.42187 21.4723 7.9213 21.115 7.53196 20.6616C6.55306 18.9656 5.14031 17.5682 4.01123 15.9789C2.92109 14.5442 2.03674 12.9815 1.00221 11.5148C2.2036 10.9868 3.2715 10.1388 4.61193 9.95214C5.79107 11.1735 6.72547 12.5762 7.7155 13.9362C8.26613 14.6669 8.83346 15.4349 9.66775 15.8936Z" fill="#8B1F33"/>
</svg>
