<svg width="89" height="101" viewBox="0 0 89 101" fill="none" xmlns="http://www.w3.org/2000/svg">
<path d="M21.5789 48.0586C21.4432 47.9336 21.287 47.7012 21.1389 47.5392C20.5101 46.8448 20.3161 46.5668 19.7923 45.9015C18.994 44.9783 16.9661 41.9651 17.2315 41.6883L17.1855 41.6094L17.1845 41.5111C17.1902 41.509 17.1959 41.5079 17.2018 41.5079C17.2018 41.5079 17.2018 41.5079 17.2018 41.5079C17.2051 41.5079 17.2085 41.5082 17.2119 41.5089C17.214 41.5093 17.2161 41.5101 17.2183 41.5111L17.2191 41.6001L17.2608 41.6716C17.3246 41.6579 17.5357 41.8866 17.6164 41.884C17.703 41.8862 18.089 41.6208 18.3373 41.9781C18.6781 42.4895 19.4357 43.8033 19.6451 44.0639C19.7872 44.251 19.9844 44.4424 20.1742 44.6744C20.7755 45.402 21.0693 45.7958 21.7219 46.3479C21.908 46.6439 22.0895 46.9262 22.2866 47.2161C22.6125 47.5127 23.0408 48.0372 23.2459 48.2189C23.4098 48.3655 23.5375 48.4162 23.7119 48.5683C23.9089 48.7393 24.1718 49.0373 24.5427 49.3283C25.1535 49.8023 25.3392 49.7764 25.7216 50.0368C26.113 50.3013 26.6912 50.7749 27.2352 51.0508C27.3072 51.0783 27.3795 51.1054 27.4519 51.1323C27.4211 51.0775 27.3907 51.0227 27.3606 50.9679C27.6273 51.1109 27.7113 51.2337 27.953 51.3708C28.2387 51.5314 28.4172 51.5561 28.6134 51.6579C28.7726 51.7403 28.9698 51.8935 29.1845 51.992C29.4977 52.1345 29.4575 52.0368 29.63 52.1005C29.6951 52.1365 30.9615 52.6055 31.0375 52.6199C31.5796 52.8078 31.6058 52.9153 32.0424 53.0569C32.8244 53.3041 33.6317 53.4606 34.43 53.5602C34.8868 53.6171 35.3385 53.6551 35.7708 53.6833C36.2984 53.718 36.8496 53.7509 37.3779 53.7718C36.5337 54.011 38.3982 54.2136 37.6996 53.8256C38.2892 53.8764 38.7073 53.7531 39.2628 53.729C39.6231 53.7113 39.8808 53.7423 40.3933 53.6762C41.3099 53.5595 42.2585 53.2025 42.5765 53.4113C43.6239 53.1268 44.5541 52.9348 44.8461 52.5812C45.105 52.4826 45.8274 52.3778 46.1268 52.2796C46.4199 52.2132 48.5262 51.3306 48.8501 51.1346C49.1835 50.9658 49.7574 50.6484 50.017 50.4678C50.3446 50.2413 50.4438 49.8898 51.1924 49.7505C51.8596 49.274 52.1001 49.1103 52.7284 48.6759C52.8416 48.5965 52.8808 48.6213 52.9446 48.5715C53.0759 48.4688 53.277 48.2676 53.5028 48.0749C53.8741 47.7581 54.1421 47.6409 54.0088 47.5713C54.2346 47.3421 54.4561 47.109 54.6731 46.8719C54.7737 46.8145 54.8736 46.7567 54.9734 46.6979C55.0762 46.5572 55.1774 46.4158 55.277 46.2734C55.2829 46.5635 56.0364 45.6078 55.6792 45.8109C56.1357 45.3904 56.5785 44.9518 57.005 44.4967C57.1369 44.7158 57.8716 43.4344 57.6885 43.4555C57.7308 43.3985 57.7728 43.3414 57.8146 43.284C58.228 42.8166 58.5088 42.3142 58.9385 41.6913C59.3648 41.0625 59.3421 41.1308 59.55 40.9823C59.6321 40.8228 59.7125 40.6623 59.7912 40.5007C59.9559 39.5314 60.3648 39.9128 60.7916 38.3351C61.1634 37.9281 61.5086 36.6868 61.6735 35.8623C61.6938 35.766 61.66 35.7549 61.6837 35.626C61.7463 35.3102 61.9736 34.5341 61.8532 34.5346C61.9462 34.2676 62.0345 33.9976 62.1175 33.7286C62.1382 33.4993 62.1556 33.2692 62.1697 33.0383C62.134 33.0341 62.0984 33.0298 62.0627 33.0255C62.0956 32.9499 62.1244 32.8653 62.1495 32.7752C62.2708 32.3454 62.3004 31.7985 62.3488 31.5051C62.3606 31.4346 62.412 31.4234 62.4419 31.2028C62.4778 30.9449 62.4887 30.4612 62.5118 30.1519C62.4604 30.03 62.4081 29.9089 62.3549 29.7888C62.3307 29.2398 62.4692 29.0439 62.4716 28.7188C62.4776 28.6604 62.4081 27.5954 62.3947 27.5392C62.3249 27.0731 62.2405 27.2145 62.0814 25.8711C62.0503 25.6321 62.0607 25.4327 62.0245 25.2172C61.9681 24.834 61.6223 23.7207 61.5084 23.6569C61.5147 23.1764 61.1184 21.9899 61.0248 21.6345C60.9986 21.5263 61.0597 21.4792 60.9598 21.1513C60.8805 20.8844 60.5718 20.2378 60.443 19.9111C60.3085 19.5631 60.3079 19.4175 60.2436 19.2625C60.1823 19.1163 60.0778 19.0036 59.986 18.8088C59.7002 18.2006 59.4842 17.6247 59.2233 17.1588C58.8457 16.4848 58.361 15.9837 57.9501 15.4903C57.8687 15.3536 57.8051 15.2076 57.7091 15.0711C56.5293 13.3776 54.9623 11.6329 53.3801 10.2921C52.6743 9.63988 50.7761 8.14884 51.1315 8.77812C50.8413 8.61783 48.7987 7.31691 48.3611 7.14782C47.9453 6.95099 47.5846 6.8592 47.2503 6.72365C46.5578 6.44516 46.0029 6.22836 45.3029 6.01704C44.9789 5.91998 44.6264 5.82655 44.219 5.73983C43.8845 5.66837 43.508 5.65488 43.3116 5.61313C43.0738 5.56207 42.8313 5.44649 42.5175 5.38801C41.7764 5.23982 40.3756 5.1147 39.6505 5.08349C39.5187 5.07597 39.4745 5.01557 39.2859 4.99224C38.546 4.89855 37.7158 4.94163 37.8697 5.12238C36.9208 5.05246 36.056 5.23766 35.1948 5.37746C33.3596 5.61576 30.1127 6.61144 28.7027 7.41168C27.8086 7.89731 27.8644 7.94194 26.5334 8.61845C26.2395 8.77275 25.9471 8.92564 25.5974 9.12776C24.7811 9.59914 23.9828 9.99251 23.5308 10.5871C22.6771 11.201 22.0797 11.7869 21.407 12.2153C21.3673 12.307 21.3286 12.3984 21.2899 12.4905C21.1988 12.5821 21.1085 12.6742 21.0189 12.7669C20.9647 12.7701 20.9105 12.7734 20.8562 12.777C20.1988 13.4331 19.5473 14.4246 19.0757 15.0406C18.2229 16.0385 16.4553 18.9135 15.9834 20.0685C15.705 20.6667 15.771 20.7281 15.4876 21.0269C15.4471 21.1697 15.4083 21.3128 15.3712 21.4559C15.3736 21.5258 15.3763 21.5955 15.3795 21.665C15.3808 21.6939 15.3821 21.7229 15.3834 21.7518C15.1205 22.5517 14.8217 23.5121 14.6774 24.3036C14.386 25.7479 14.3532 27.9542 14.394 29.4278C14.3982 29.7976 14.3639 30.2631 14.4047 30.6281C14.4655 31.1528 14.5993 31.2675 14.7056 31.9261C14.8732 33.0645 15.2752 35.1939 15.6564 36.2263C15.7649 36.5358 15.8585 36.6635 15.9393 36.8716C16.2842 37.7509 16.5821 38.4697 17.0249 39.2537C17.3398 40.1806 17.1807 40.1707 17.1828 40.5072C17.187 40.7665 17.3015 41.5199 17.2653 41.6522C17.2391 41.7474 17.0326 41.5651 17.0142 41.6884C16.3728 40.6617 16.2143 40.1739 15.9047 39.2387C15.1651 37.6054 14.5616 35.896 14.1284 34.1478C14.1294 33.9758 14.1337 33.8115 14.1383 33.642C14.1384 33.642 14.1385 33.642 14.1386 33.642C14.0356 32.9588 13.8796 32.6903 13.7906 32.3294C13.0921 29.7497 13.0933 24.9643 14.4433 21.3549C14.8662 20.1325 15.3718 19.0446 15.8357 18.161C16.1903 17.3876 17.6477 15.03 18.0838 14.6298C18.189 14.5203 18.2657 14.5263 18.3659 14.4016C19.2106 13.2516 20.152 12.1699 21.1743 11.1668C23.3931 9.23691 25.8966 7.4685 28.6072 6.2453C33.9029 3.82101 40.0676 3.28761 45.6119 5.00615C47.7044 5.64045 49.6996 6.56416 51.5309 7.7387C52.8268 8.55648 54.3881 9.73653 55.4393 10.8117C55.8787 11.26 55.9879 11.5139 56.5983 12.0676C56.5834 12.0927 56.5684 12.1178 56.5534 12.143C57.0546 12.6526 57.3996 12.962 57.8986 13.5933C58.33 14.1162 59.3391 15.5992 59.6237 16.1264C59.7777 16.3959 59.6741 16.3227 59.8189 16.5723C60.0692 16.9974 60.6284 17.8986 60.9135 18.5213C61.1805 19.0812 61.5217 20.069 61.6909 20.5125C62.3177 22.103 62.888 23.9004 63.133 25.7186C63.2033 26.2207 63.2059 26.8741 63.2217 27.0311C63.255 27.3381 63.3273 27.4244 63.3513 27.6312C63.4823 28.6836 63.4009 30.3367 63.3075 31.3655C63.2665 31.8802 63.2102 32.3952 63.1369 32.9146C62.7379 35.7935 61.7821 38.6829 60.402 41.1746C59.4266 43.0621 57.2634 45.8779 55.8006 47.1785C55.4923 47.4652 55.523 47.3348 55.2671 47.5771C54.9819 47.8443 54.8563 48.021 54.7222 48.1455C53.8173 49.0338 51.571 50.7206 50.4952 51.2576C50.2943 51.3653 50.1224 51.3986 50.0042 51.4658C49.9443 51.4997 49.8276 51.6101 49.6394 51.7172C47.9714 52.6529 46.6681 53.185 44.8816 53.75C41.7036 54.7543 37.7943 55.2746 34.2528 54.6598C33.9862 54.6151 33.7245 54.5652 33.4679 54.5105C32.6555 54.3368 32.1449 54.0703 32.032 54.0409C31.7862 53.9726 31.6138 54.004 31.1131 53.8591C29.4543 53.395 27.4072 52.2786 26.0405 51.4005C25.356 50.9777 24.4093 50.3929 23.7867 49.9006C23.2774 49.5175 22.2045 48.471 21.9833 48.2986C21.8432 48.1957 21.7293 48.1969 21.5789 48.0586ZM40.9498 53.661C40.8645 53.8109 41.9663 53.51 41.5339 53.5151C41.4373 53.5179 40.9732 53.6244 40.9498 53.661ZM56.1649 12.7571C56.1441 12.7896 56.1233 12.822 56.1025 12.8545C56.2133 12.9564 56.3234 13.0596 56.4326 13.1637C56.3948 13.0851 56.3565 13.0065 56.3178 12.928C56.2671 12.8708 56.2161 12.8138 56.1649 12.7571Z" fill="#8B1F33"/>
<path d="M45.4607 5.50068C45.438 5.716 36.175 2.4601 26.5683 6.10749C18.7902 9.05997 14.1377 15.2618 12.027 18.0773C9.75095 21.1113 7.2966 24.3835 6.36284 29.4631C5.14701 36.0695 7.30632 41.3514 8.15578 43.3512C9.00524 45.3511 12.2312 52.6361 20.1455 56.3683C27.3659 59.771 34.3043 58.2409 38.9341 57.223C42.426 56.4531 45.1949 55.321 47.0527 54.4369C52.5482 64.1165 56.2249 71.4145 58.7603 76.7943C58.7603 76.7943 60.6764 80.8625 69.5244 93.4195C69.7871 93.7915 70.6787 95.0312 72.2641 96.0784C72.611 96.31 77.4614 99.4191 80.95 97.217C84.1793 95.178 83.8324 90.1115 83.7837 89.521C83.4757 85.8116 81.3099 83.6127 76.7027 78.5005C75.8111 77.512 72.6143 73.8516 66.2239 66.5307C61.8274 61.4968 58.9905 58.1202 54.1369 53.3244C53.1869 52.3849 52.3958 51.6247 51.8706 51.1256C53.0605 50.385 54.6751 49.2464 56.361 47.6022C57.337 46.6495 58.6111 45.4066 59.7038 43.5927C60.4754 42.3105 61.7658 39.7332 61.9604 35.9097C61.3119 38.0531 60.028 41.3644 57.3856 44.6888C55.8715 46.5908 50.7001 52.5382 41.9267 54.0161C40.0754 54.3293 35.4325 55.0503 30.1023 53.0015C25.3557 51.1778 22.5901 48.1274 21.0533 46.3983C19.1437 44.2419 13.3304 37.6844 13.8297 27.8809C14.3192 18.3154 20.4794 12.3713 22.2983 10.7597C23.5725 9.62763 27.7258 6.18578 34.0773 4.95912C40.364 3.7455 45.4737 5.34734 45.4575 5.50394L45.4607 5.50068Z" fill="#8B1F33"/>
<path d="M27.8815 6.48709C28.2788 6.28945 28.862 6.06505 29.3455 5.87255C31.3423 5.1053 32.1481 4.91026 33.9959 4.53769C34.0359 4.53026 34.0762 4.52284 34.1171 4.51544C36.9983 3.69506 45.3349 4.2402 45.692 5.52821L45.2903 5.33774C45.2945 5.33765 45.2977 5.33865 45.2999 5.34079C45.2999 5.34079 45.2999 5.34079 45.2999 5.34079C45.3014 5.34235 45.3024 5.34451 45.3029 5.34728C45.303 5.34816 45.3031 5.34917 45.3029 5.35033L45.6742 5.52638C45.6828 5.45434 45.6347 5.36959 45.5994 5.34294C45.5556 5.30609 45.5572 5.31472 45.5335 5.30176C45.4876 5.28041 45.4632 5.27546 45.4154 5.2601C45.3372 5.23788 45.2396 5.21395 45.1373 5.19166C44.9363 5.14834 44.7389 5.1186 44.6807 5.12725C44.5575 5.1498 44.5647 5.44962 43.5698 5.25605C42.1313 4.91639 38.5802 4.68084 37.7893 4.7743C37.2493 4.79883 36.5867 4.87403 35.9041 4.95972C35.2306 5.04416 34.6592 5.13916 34.132 5.24257C32.9388 5.48325 31.9831 5.73781 30.6915 6.2442C29.9247 6.47154 29.1675 6.73706 28.424 7.03836C27.4763 7.48694 26.0715 8.22641 25.5377 8.57972C25.0977 8.86298 24.8636 9.0583 24.4194 9.37434C23.944 9.7153 23.2156 10.2186 22.4357 10.9144C22.4028 10.9437 22.3684 10.9745 22.3324 11.007C20.9961 12.2498 20.863 12.567 20.1449 13.3883C19.4075 14.2453 18.3094 15.6229 17.5919 16.8735C17.5043 17.0348 17.4215 17.1918 17.3386 17.3527C17.422 17.2511 17.5044 17.1529 17.5892 17.0526C17.2295 17.6754 17.0399 17.9308 16.734 18.5186C16.3777 19.2174 16.2541 19.5963 16.045 20.0804C15.8762 20.4742 15.6309 21.0041 15.4482 21.5355C15.1899 22.3031 15.2937 22.1556 15.1745 22.5725C15.0725 22.7287 14.4234 25.8836 14.4562 26.0726C14.3345 27.0448 14.2882 27.3853 14.237 27.9017C14.2179 28.1123 14.2015 28.3504 14.1941 28.6673C14.111 31.738 14.8004 34.8643 15.8733 37.4796C16.3462 38.6515 16.9274 39.8414 17.5538 40.9332C16.4029 39.2942 18.5588 43.1596 17.9203 41.6098C18.635 42.8176 19.2859 43.594 20.1127 44.6391C20.5283 45.1592 20.8444 45.5602 21.3454 46.1397C21.494 46.3112 21.6597 46.4996 21.851 46.7095C23.3098 48.363 25.2372 49.7603 25.6519 50.2581C27.428 51.5059 29.1799 52.3418 30.2363 52.6527C30.4306 52.7109 30.5992 52.7516 30.74 52.7751C31.3571 53.0032 32.9571 53.5468 33.6899 53.683C34.351 54.005 39.7566 54.2185 40.6287 53.9339C40.9753 53.891 41.4219 53.8251 41.8811 53.7466C42.5904 53.6287 43.3116 53.4627 43.7489 53.3415C44.6498 53.0827 45.2223 52.7657 46.8377 52.334C48.6117 51.5614 49.2238 51.2337 50.7661 50.3056C51.0445 50.1315 51.0897 50.1354 51.2474 50.0304C51.5784 49.8093 52.11 49.4123 52.6642 48.9795C53.5745 48.2671 54.0952 47.8633 53.9384 47.8812C54.4983 47.3683 55.0398 46.8286 55.5522 46.2725C55.7495 46.0933 55.9443 45.9109 56.1367 45.7252C56.3955 45.4095 56.645 45.09 56.8868 44.764C56.8201 44.9161 56.973 44.7671 57.1754 44.5215C57.586 44.0309 58.1542 43.1366 57.7526 43.607C58.639 42.4368 59.4237 41.1888 60.0997 39.8788C60.1917 40.1522 61.4098 36.9147 61.1873 37.1479C61.2447 36.9892 61.3004 36.8302 61.3542 36.6721C61.4604 36.3855 61.5571 36.101 61.6471 35.8149L62.424 33.2491L62.2872 35.9263C62.2106 37.1052 62.0792 38.285 61.6805 39.6991C61.1328 41.4683 61.1122 41.2755 60.8478 41.7732C60.6832 42.173 60.5019 42.5662 60.3029 42.9529C60.1718 43.2637 60.0456 43.517 59.9289 43.7281C59.1991 44.9178 59.0165 45.0572 56.7927 47.4805C56.7013 47.554 56.6001 47.6391 56.4903 47.7345C55.4722 48.6503 53.5202 50.3151 51.9716 51.2878L52.0022 50.987C52.0387 51.0204 52.0753 51.054 52.1114 51.0871C52.2838 51.2456 52.3027 51.2306 52.5329 51.4412C52.984 51.8524 53.9523 52.8213 54.3189 53.1404C54.4106 53.2199 54.4652 53.2585 54.4665 53.2384C54.9272 53.7257 55.3887 54.2195 55.8445 54.7139C56.2394 55.0951 56.6336 55.4798 57.0249 55.866C57.0402 55.8474 57.0555 55.8288 57.0708 55.8102C57.7808 56.6611 58.9931 57.9124 59.5561 58.5593C59.6687 58.6884 59.669 58.7367 60.0196 59.1359C60.4289 59.6017 61.207 60.4558 61.6882 61.016C61.9062 61.2071 62.1229 61.3974 62.3407 61.5896C63.2269 62.5678 63.4589 62.9826 63.9624 63.5714C64.0529 63.6769 65.73 65.5936 65.8212 65.6945C66.0966 66.0014 66.2461 66.1504 66.4365 66.345C66.7713 66.6876 67.1947 67.1283 68.5499 68.6976C68.927 69.1344 69.213 69.5052 69.5569 69.9009C70.1577 70.5922 72.0437 72.6533 72.2309 72.7768C72.9112 73.6691 74.9078 75.9054 75.4728 76.5802C75.6439 76.7849 75.6486 76.8631 76.18 77.4811C76.3436 77.6709 76.6189 77.9782 76.9198 78.3047C77.417 78.8435 77.9987 79.467 78.3448 79.857C78.9389 80.5269 79.1189 80.7895 79.3851 81.0938C79.6309 81.3756 79.8908 81.6217 80.2263 82.0122C81.2812 83.2422 82.1502 84.4338 82.7891 85.5667C83.5333 86.8619 83.9779 88.1985 84.1236 89.4927C84.1617 89.8197 84.182 90.146 84.19 90.4692C84.1827 90.859 84.1457 91.2449 84.1088 91.6548C83.9205 93.7341 83.1972 96.1989 81.1287 97.5C78.1712 99.2714 74.6985 97.8922 72.2618 96.4383C72.2133 96.4077 72.1524 96.3688 72.0957 96.3306C71.2305 95.7686 70.0713 94.6986 69.31 93.571C68.2418 92.029 67.3945 90.8223 67.785 91.6009C67.2864 90.9717 64.0739 86.1054 63.4732 85.1614C62.8626 84.2324 62.3521 83.5156 61.8837 82.7837C60.6133 80.7692 59.7001 79.3372 58.4275 76.951C58.2984 76.6824 58.1601 76.3969 58.0167 76.1035C57.6539 75.3614 57.2282 74.5861 57.0145 74.146C56.7561 73.613 56.5195 73.0293 56.1827 72.3431C55.3853 70.7087 53.8292 67.6969 53.0223 66.1503C52.874 65.8644 52.8596 65.7529 52.6562 65.341C51.8722 63.7503 50.9208 62.0013 50.9782 62.3695C49.9608 60.3363 48.8851 58.5207 47.8522 56.6866C47.5068 56.0733 47.119 55.3861 46.6954 54.6397L47.2292 54.8078C44.8606 55.9482 41.8313 57.0125 39.0224 57.6235C36.9305 58.0977 34.9741 58.4737 33.56 58.6602C31.098 58.9249 31.1494 59.1079 27.4787 58.8397C26.6663 58.7532 25.8604 58.6303 24.892 58.4181C23.0358 58.0098 21.3955 57.3411 19.9804 56.7185C19.6577 56.5766 19.3551 56.4418 19.0543 56.3088C16.7919 55.0686 15.1611 53.7792 13.8656 52.3843C13.6875 52.247 13.5084 52.1043 13.3347 51.9627C13.1133 51.7366 12.8992 51.5093 12.686 51.2743C12.6378 51.1847 12.5906 51.0953 12.5443 51.0061C11.0405 49.3301 9.40603 46.9689 8.56923 45.2473C8.33776 44.7856 8.05801 44.1877 7.7751 43.5129C6.06757 40.0641 5.28683 33.7721 5.76379 31.2478C5.88417 30.2011 5.94663 29.8065 6.03313 29.4024C6.08131 29.1882 6.13991 28.9798 6.2446 28.6745C6.31412 28.3232 6.39331 27.9701 6.48085 27.6219C6.51794 27.3975 6.5578 27.1765 6.60259 26.9519C7.19371 24.9617 8.35024 22.7685 9.43282 21.1389C10.0792 20.1416 10.8925 19.0242 11.751 17.8703C13.4414 15.532 15.5311 13.098 17.3295 11.5159C17.9993 10.9127 18.8895 10.2282 19.5902 9.6958C20.6156 8.93078 20.8185 8.67315 22.2078 7.81491C23.268 7.17251 24.7966 6.39057 26.4475 5.78915C28.539 5.00949 30.7884 4.56471 32.2585 4.36349C33.0358 4.25531 33.3965 4.19215 33.9422 4.14238C36.2143 3.95301 38.0964 4.00957 40.2679 4.19791C42.5887 4.56602 42.3636 4.6823 43.0536 4.90085C43.6092 5.06682 45.1002 5.6284 45.4431 5.71871C45.4835 5.71966 45.5604 5.71486 45.6259 5.64291C45.6866 5.56976 45.6805 5.5152 45.6854 5.525C45.6873 5.52751 45.6889 5.6013 45.6265 5.66991C45.5636 5.7364 45.497 5.74803 45.4585 5.7549C45.376 5.77262 45.3047 5.76992 45.254 5.77553C45.1209 5.77815 45.0412 5.78802 45.1412 5.83551C42.4123 5.25151 41.3071 5.03408 39.0735 4.7611C34.95 4.43603 30.7531 4.87146 26.8806 6.30861C26.8099 6.32895 26.7391 6.34965 26.6683 6.37073C26.3754 6.45787 26.0889 6.54844 25.8 6.64592C25.8 6.64586 25.7999 6.6458 25.7999 6.64575C24.326 7.24534 23.7716 7.64795 23.0347 8.0789C19.7598 9.96028 15.6306 13.6501 12.3039 18.2849C9.59756 21.7096 7.30112 25.6196 6.66248 29.5182C6.27663 31.5606 6.22552 33.5027 6.35338 35.1751C6.36889 36.7607 7.40873 41.1166 8.42498 43.2369C8.63065 43.732 8.80828 44.1311 8.9061 44.3581C9.04505 44.6781 9.04881 44.7842 9.21129 45.1103C10.7271 48.0326 12.7485 50.684 15.2407 52.8137C16.7323 54.1359 18.4254 55.2644 20.2578 56.1302C24.6112 58.2366 29.6744 58.5617 34.3896 57.8058C35.8899 57.5806 37.383 57.2606 38.8696 56.9295C41.651 56.3115 44.3564 55.3773 46.9178 54.1536L47.1803 54.0278L47.3255 54.282C51.5101 61.632 55.4846 69.0559 59.0711 76.6478C61.7046 81.5219 64.9217 86.1474 68.075 90.745C68.6152 91.5244 69.1943 92.3494 69.8099 93.2184C70.5099 94.2096 71.4314 95.101 72.4622 95.7785C73.775 96.609 75.2433 97.2135 76.5678 97.4892C77.9101 97.7032 78.5823 97.9184 80.2253 97.2355C80.2498 97.2448 80.2745 97.254 80.2994 97.2629C80.4805 97.1749 80.6436 97.081 80.7995 96.9786C81.8286 96.267 82.4143 95.4417 82.9357 93.9887C83.2661 93.1173 83.582 91.1755 83.4397 89.5493C83.3647 88.5719 83.1223 87.7334 82.9502 87.2672C82.702 86.6256 82.8342 86.8475 82.5532 86.2649C82.0908 85.2517 80.5787 83.3642 79.536 82.1935C78.6791 81.2021 77.267 79.6026 76.4676 78.7124C76.4009 78.6383 76.3362 78.5662 76.2743 78.4976C73.6403 75.5506 70.7665 72.3346 68.009 69.1552C67.2472 68.2758 66.2976 67.1193 66.055 66.8433C66.0265 66.8109 65.9991 66.7799 65.9725 66.7501C65.5606 66.2887 65.3908 66.1533 65.0924 65.8189C63.4738 64.0035 61.0362 61.1133 59.4336 59.3589C57.6662 57.4108 55.8088 55.4773 53.8844 53.5799C53.1379 52.8426 52.3837 52.1109 51.6217 51.3875L51.2828 51.0672L51.6796 50.8188C53.2776 49.8227 54.7663 48.6488 56.1062 47.3409C57.3711 46.128 58.5249 44.8563 59.3913 43.4044C59.6527 42.971 59.8928 42.5201 60.1066 42.0638C60.8771 40.4439 61.4904 38.239 61.6004 35.8913L62.3053 36.014C61.3028 39.4253 59.4197 42.7454 57.6514 44.9001C57.4283 45.1774 57.2077 45.439 56.9963 45.6803C56.3362 46.4193 56.4809 46.1847 55.9116 46.784C55.271 47.4414 54.9292 47.7945 54.6138 48.0853C52.5568 50.2544 46.734 53.486 43.9224 53.9324C43.4 54.0586 43.0176 54.1014 42.7035 54.1649C42.5784 54.1898 42.3309 54.2556 41.9784 54.3232C41.8947 54.3395 41.7931 54.358 41.6946 54.3746C37.371 55.0683 33.9894 54.7773 29.9891 53.296C29.9109 53.2657 29.8328 53.235 29.7549 53.2038C26.4277 51.9077 23.3082 49.5231 20.8156 46.6096C17.2794 42.7739 14.5471 37.8498 13.7788 32.7882C13.4774 30.88 13.5684 29.55 13.5595 29.2872C13.5559 28.8382 13.5281 28.5196 13.5399 27.8661C13.5446 27.6518 13.5546 27.4042 13.5759 27.1103C13.7559 23.0821 15.8658 17.9582 18.1424 14.916C19.1379 13.4826 20.6775 11.6618 22.0306 10.4575C22.1236 10.3731 22.2207 10.2866 22.3172 10.2025C23.3942 9.17105 26.3749 7.31878 26.9662 7.03486C27.3121 6.83416 27.4531 6.70093 27.8815 6.48709ZM22.7257 47.6946C22.4663 47.595 24.4895 49.3743 23.777 48.6561C23.6108 48.5021 22.785 47.7309 22.7257 47.6946ZM80.9256 97.4588C80.9606 97.4668 80.9959 97.4745 81.0315 97.4817C81.0517 97.4686 81.0718 97.4553 81.0919 97.4418C81.3876 97.2437 81.6587 97.0175 81.905 96.7663C81.7434 96.9017 81.574 97.0271 81.3974 97.1416C81.2859 97.2259 81.1726 97.3046 81.0532 97.3804C81.0108 97.4073 80.9683 97.4334 80.9256 97.4588Z" fill="#8B1F33"/>
<path d="M33.9559 14.212C33.9798 14.1941 34.0333 14.2269 34.0653 14.2186C34.1994 14.1842 34.2551 14.2009 34.381 14.1788C34.559 14.1476 35.0673 13.9208 35.1614 14.2466C35.1614 14.2466 35.1614 14.2466 35.1614 14.2466C35.1624 14.2497 35.1633 14.253 35.1642 14.2562C35.1813 14.3183 35.1592 14.3986 35.1743 14.4701C35.1894 14.5417 35.3327 14.9895 35.2805 15.0334C35.2016 15.0941 34.9582 15.0453 34.9111 15.0665C34.8793 15.0807 34.8541 15.1339 34.8164 15.1543C34.6946 15.2204 34.6125 15.2151 34.5351 15.3644C34.4685 15.3226 34.4012 15.2812 34.333 15.2402C34.2807 15.2885 34.1627 15.2448 34.1263 15.2626C34.0968 15.277 34.0951 15.329 34.0636 15.3428C34.0276 15.3588 33.9568 15.329 33.8948 15.3602C33.7932 15.4112 33.818 15.5368 33.7595 15.5759C33.7011 15.6156 33.5753 15.5901 33.5069 15.6643C33.5013 15.6814 33.4958 15.6984 33.4902 15.7155C33.5092 15.7418 33.5282 15.7681 33.5471 15.7945C33.5099 15.8246 33.4686 15.7717 33.4303 15.7854C33.3851 15.8017 33.3847 15.8675 33.3543 15.8792C33.3295 15.8888 33.2776 15.8568 33.2463 15.8727C33.2005 15.8956 33.2372 15.957 33.2167 15.9796C33.2077 15.9885 33.0398 16.0993 33.0291 16.1045C32.9509 16.14 32.9062 16.0539 32.8393 16.0728C32.6575 16.1242 32.506 16.2751 32.3595 16.3727C32.2936 16.4164 32.2144 16.4459 32.1386 16.4635C32.1479 16.1873 31.8198 16.1253 32.0738 16.435C31.9719 16.4211 31.9595 16.542 31.8767 16.5613C31.8223 16.574 31.7677 16.5403 31.6993 16.5743C31.5788 16.6347 31.5103 16.8379 31.3554 16.6067C31.235 16.7198 31.0651 16.6934 31.1234 16.9368C31.0942 16.9682 30.9354 16.8864 30.8852 16.8902C30.8378 16.8931 30.5102 16.9911 30.4605 17.0142C30.4104 17.0368 30.3234 17.0793 30.2926 17.1205C30.2537 17.1719 30.3416 17.4116 30.1085 17.2031C30.0151 17.2823 29.9731 17.2962 29.8585 17.3218C29.8379 17.3263 29.8143 17.2893 29.804 17.2951C29.783 17.3071 29.7632 17.3557 29.7275 17.3808C29.6689 17.422 29.587 17.3629 29.6647 17.4807C29.6357 17.5249 29.6067 17.5691 29.5778 17.6135C29.5497 17.5984 29.5213 17.5836 29.4935 17.5684C29.487 17.6066 29.4806 17.6448 29.4742 17.6831C29.3956 17.4926 29.3051 17.6866 29.4145 17.7576C29.3149 17.7679 29.2148 17.7792 29.114 17.7914C29.0037 17.587 28.9296 17.8735 29.0116 17.971C29.0027 17.9764 28.9938 17.9817 28.9849 17.9871C28.875 17.983 28.8298 18.0708 28.7137 18.0958C28.5982 18.1205 28.5947 18.0961 28.5085 18.0249C28.4897 18.0442 28.4709 18.0637 28.4521 18.0831C28.4964 18.403 28.2372 17.9675 28.1646 18.2848C28.0001 18.1737 27.8974 18.3594 27.8269 18.4758C27.8188 18.4892 27.8388 18.5187 27.8294 18.5385C27.8062 18.5865 27.6823 18.6171 27.7515 18.709C27.6987 18.7054 27.6458 18.7019 27.5927 18.6987C27.5771 18.7353 27.5615 18.772 27.5459 18.8087C27.5669 18.8379 27.5878 18.867 27.6088 18.8961C27.4817 18.8364 27.4239 18.9359 27.3641 18.9432C27.3522 18.9445 27.3213 18.9058 27.287 18.914C27.2467 18.9235 27.1979 18.9773 27.1519 18.992C27.1702 19.0467 27.1885 19.1013 27.2069 19.1559C27.159 19.2283 27.0504 19.1289 27.0055 19.1484C26.9975 19.1518 26.879 19.2542 26.8742 19.2619C26.8339 19.3234 26.9243 19.4088 26.7498 19.5102C26.7191 19.5279 26.6704 19.5117 26.6442 19.5299C26.5977 19.562 26.5238 19.7437 26.5692 19.822C26.4457 19.7769 26.331 19.928 26.2695 19.9366C26.2506 19.9391 26.2028 19.8861 26.1543 19.9061C26.115 19.9223 26.0703 20.033 26.0244 20.0588C25.9755 20.0859 25.9219 20.0527 25.9002 20.0653C25.8797 20.0774 25.8944 20.1282 25.8702 20.1481C25.7942 20.21 25.6757 20.2088 25.6152 20.2588C25.5279 20.331 25.5451 20.5058 25.5176 20.6147C25.494 20.623 25.4566 20.6151 25.4381 20.6311C25.2078 20.8287 24.9393 21.0392 24.6961 21.2286C24.585 21.3138 24.1961 21.4227 24.4906 21.5882C24.4943 21.6631 24.1516 21.8205 24.1024 21.8687C24.0533 21.9158 24.0572 21.995 24.0206 22.034C24.0064 22.0492 23.9922 22.0632 23.978 22.0767C23.8821 22.1678 23.7892 22.2271 23.7045 22.382C23.6795 22.428 23.6932 22.5144 23.6724 22.5357C23.6472 22.5612 23.5722 22.5442 23.5376 22.5757C23.4545 22.6518 23.3331 22.8189 23.2532 22.8917C23.2385 22.9048 23.1902 22.8711 23.158 22.8799C23.0325 22.9139 22.9568 23.0104 23.1119 23.1167C22.9401 23.1524 22.9303 23.3125 22.8515 23.415C22.6848 23.6293 22.339 23.987 22.2555 24.2231C22.2036 24.3704 22.2711 24.4193 22.0816 24.5488C22.0397 24.5776 21.9928 24.6038 21.9421 24.6395C21.8235 24.7227 21.6223 24.7351 21.7109 24.9302C21.5815 25.0259 21.5378 25.1463 21.3417 25.1476C21.3651 25.1808 21.3885 25.2139 21.412 25.247C21.4018 25.2631 21.3917 25.2792 21.3816 25.2952C21.3484 25.2791 21.3151 25.2631 21.2818 25.2471C21.196 25.3525 21.2214 25.5806 21.1573 25.6738C21.047 25.8317 20.7282 26.2146 20.5902 26.3439C20.5162 26.4127 20.58 26.4581 20.4143 26.4206C20.4123 26.445 20.4106 26.469 20.4085 26.4936C20.4312 26.5238 20.454 26.5539 20.4768 26.5839C20.4126 26.6908 20.2896 26.7888 20.2293 26.8913C20.1188 27.0786 20.0417 27.4062 19.8806 27.5655C19.8405 27.6045 19.7434 27.6301 19.7185 27.6773C19.682 27.7462 19.779 27.8195 19.7339 27.9077C19.6572 28.0567 19.3856 28.2741 19.3227 28.4222C19.3036 28.4665 19.3336 28.5066 19.323 28.5381C19.2795 28.6702 19.2261 28.7699 19.23 28.9199C19.0645 28.9968 18.9358 28.9216 18.781 28.8972C18.664 28.8788 18.3821 28.8603 18.286 28.8314C18.2185 28.8111 18.154 28.7376 18.0784 28.718C18.0984 28.5325 18.192 28.4941 18.3521 28.4124C18.4643 28.1734 18.5799 27.9359 18.6991 27.6997C18.7474 27.698 18.7956 27.6962 18.8439 27.6946C18.844 27.6946 18.8441 27.6947 18.8442 27.6947C18.9346 27.6271 18.859 27.5399 18.8634 27.4799C18.9018 26.9039 19.5868 26.0967 19.9227 25.6309C19.9939 25.5287 20.1691 25.1603 20.2742 25.1273C20.3013 25.1188 20.3585 25.1496 20.3738 25.132C20.4586 24.9379 20.5466 24.7433 20.6369 24.5497C20.9682 24.2563 21.1672 23.8511 21.4242 23.4986C21.9783 22.7381 22.565 22.0057 23.207 21.3319C23.3701 21.1606 23.5332 20.9967 23.7028 20.8342C23.8657 20.6781 24.0366 20.4475 24.2201 20.3193C24.2962 20.2662 24.3943 20.3167 24.4302 20.1789C24.45 20.1986 24.4698 20.2184 24.4896 20.2382C24.5436 20.1432 24.5518 20.0499 24.6352 19.9664C24.7058 19.8956 24.8985 19.7205 24.9732 19.6704C25.0112 19.6445 25.0325 19.6952 25.0644 19.6672C25.1188 19.6192 25.1897 19.4638 25.266 19.3997C25.3355 19.3411 25.4925 19.2891 25.5406 19.2384C25.7131 19.0566 25.8748 18.8133 26.0999 18.6694C26.1632 18.6289 26.2803 18.6246 26.2975 18.6091C26.3312 18.5785 26.3021 18.518 26.3213 18.4928C26.4182 18.3655 26.6595 18.2838 26.7837 18.1976C27.1887 17.9156 27.603 17.5967 28.0236 17.3395C28.2862 17.1774 28.7222 16.8947 28.9927 16.7935C29.0508 16.7716 29.0734 16.842 29.1183 16.8156C29.1681 16.7864 29.1705 16.7287 29.1918 16.7118C29.3372 16.5945 29.673 16.3492 29.8497 16.3105C29.8839 16.3027 29.9323 16.3407 29.9498 16.331C29.9587 16.3262 29.9606 16.2813 29.9868 16.2628C30.2163 16.0999 30.4107 16.024 30.6603 15.9127C31.1402 15.6983 31.6633 15.3738 32.1875 15.1905C32.3023 15.1501 32.4208 15.2215 32.4357 15.2139C32.4684 15.1977 32.4612 15.1191 32.5243 15.0727C32.7329 14.9194 33.0723 14.8702 33.2841 14.7491C33.3855 14.6903 33.5062 14.5432 33.6072 14.4837C33.6853 14.4368 33.9097 14.3962 33.9324 14.344C33.9474 14.3119 33.9308 14.2316 33.9559 14.212ZM31.599 16.5527C31.5573 16.4286 31.4526 16.5989 31.5398 16.6343C31.5594 16.6422 31.6099 16.5849 31.599 16.5527ZM24.9826 20.7346C25.0087 20.761 25.0349 20.7874 25.061 20.8138C25.0666 20.7878 25.0729 20.7612 25.0789 20.7349C25.0546 20.7268 25.0304 20.7187 25.0061 20.7106C24.9981 20.7187 24.9904 20.7267 24.9826 20.7346Z" fill="#8B1F33"/>
<path d="M37.2514 44.6165C37.2704 44.6103 37.2878 44.6622 37.3081 44.6679C37.3927 44.6922 37.4192 44.7301 37.4955 44.7605C37.6068 44.8061 37.962 44.7879 37.9194 45.1226C37.9194 45.1226 37.9194 45.1226 37.9194 45.1226C37.919 45.1259 37.9186 45.1292 37.9181 45.1326C37.9089 45.1963 37.8707 45.2624 37.8571 45.334C37.8435 45.4057 37.7883 45.8727 37.7413 45.8934C37.6728 45.9199 37.538 45.7801 37.5033 45.7806C37.4797 45.7811 37.4451 45.8194 37.415 45.8228C37.3175 45.8337 37.2707 45.7953 37.169 45.8974C37.144 45.8317 37.1189 45.766 37.094 45.7002C37.0446 45.7213 36.9911 45.6311 36.9633 45.6311C36.9406 45.6312 36.9199 45.6768 36.8963 45.6753C36.8694 45.6737 36.839 45.6158 36.7909 45.6157C36.7121 45.6153 36.6765 45.7372 36.6273 45.7449C36.5768 45.753 36.5144 45.6723 36.4447 45.7048C36.4345 45.7171 36.4242 45.7293 36.414 45.7416C36.4138 45.7735 36.4139 45.8054 36.4138 45.8373C36.3799 45.846 36.3787 45.7804 36.3505 45.774C36.3175 45.7665 36.2893 45.8233 36.2667 45.8188C36.2482 45.815 36.2322 45.7622 36.2075 45.7606C36.1715 45.758 36.1662 45.829 36.145 45.8383C36.1368 45.8421 35.9907 45.8533 35.9825 45.8521C35.9216 45.8428 35.9362 45.7471 35.8908 45.7293C35.7642 45.68 35.6149 45.7283 35.486 45.7302C35.4294 45.7313 35.3744 45.7133 35.3237 45.686C35.4628 45.4638 35.3187 45.2336 35.3026 45.627C35.2543 45.5595 35.1897 45.6519 35.1368 45.6213C35.1027 45.6015 35.0897 45.5432 35.0369 45.532C34.9445 45.5129 34.8061 45.6359 34.8459 45.3615C34.726 45.3818 34.6583 45.261 34.5578 45.4865C34.5255 45.4935 34.4915 45.3347 34.4655 45.3074C34.4407 45.2819 34.2324 45.1576 34.1971 45.1437C34.1614 45.13 34.0977 45.108 34.0611 45.1198C34.0156 45.1344 33.9184 45.3693 33.9311 45.0656C33.8442 45.0653 33.8174 45.0486 33.7534 44.9938C33.7417 44.9838 33.7527 44.9414 33.7449 44.939C33.7288 44.9342 33.692 44.957 33.6619 44.952C33.6124 44.9438 33.6121 44.8472 33.5763 44.9836C33.5378 44.9966 33.5 45.0097 33.4617 45.0225C33.4587 44.9932 33.4558 44.9638 33.453 44.9344C33.4275 44.9575 33.4019 44.9806 33.3762 45.0036C33.4569 44.8153 33.303 44.8929 33.306 45.0165C33.2571 44.9569 33.2106 44.8977 33.163 44.8379C33.243 44.6204 33.0389 44.7693 33.0109 44.8926C33.0039 44.8901 32.9972 44.8877 32.9904 44.8852C32.9496 44.8069 32.8782 44.8361 32.8176 44.7719C32.7571 44.7077 32.7714 44.6887 32.784 44.5803C32.7649 44.5802 32.7458 44.5801 32.7267 44.5799C32.5407 44.8245 32.7233 44.3528 32.4951 44.5096C32.5082 44.3193 32.3555 44.3668 32.2559 44.3893C32.2445 44.3919 32.232 44.4253 32.2158 44.4311C32.1765 44.4447 32.1153 44.373 32.0776 44.4816C32.0624 44.4404 32.0473 44.3991 32.0323 44.3579C32.003 44.3691 31.9734 44.3802 31.9443 44.3915C31.9316 44.425 31.9189 44.4586 31.9062 44.4922C31.906 44.3612 31.8203 44.3785 31.7968 44.3379C31.7922 44.3298 31.8087 44.2831 31.7926 44.2623C31.7739 44.2378 31.7225 44.2333 31.6991 44.2074C31.6676 44.254 31.6361 44.3005 31.6045 44.3469C31.5412 44.3538 31.5766 44.212 31.5503 44.1893C31.5455 44.1853 31.4409 44.1542 31.4343 44.1548C31.3805 44.1592 31.3467 44.2789 31.2285 44.2013C31.2075 44.1874 31.2055 44.1403 31.1855 44.1301C31.1502 44.112 31.0031 44.1548 30.9593 44.2333C30.9592 44.1116 30.8232 44.1027 30.8012 44.0577C30.7947 44.044 30.8207 43.9776 30.7951 43.9498C30.7743 43.9272 30.6846 43.95 30.6556 43.9265C30.6249 43.9015 30.6369 43.8412 30.6231 43.8304C30.6099 43.8202 30.5765 43.8581 30.5565 43.8488C30.4944 43.8189 30.4707 43.7225 30.4221 43.6986C30.3522 43.664 30.2282 43.7641 30.142 43.7937C30.1312 43.7784 30.1298 43.7438 30.1144 43.7362C30.0523 43.7052 29.9883 43.6704 29.9242 43.6332C29.7927 43.557 29.663 43.4719 29.5448 43.389C29.4633 43.3325 29.3352 43.0471 29.2438 43.3649C29.1872 43.3998 29.0261 43.1671 28.9862 43.1431C28.9458 43.1191 28.8845 43.1521 28.8513 43.1351C28.7508 43.0833 28.702 43.0088 28.5573 42.9859C28.5199 42.9802 28.4531 43.0216 28.4352 43.0106C28.4139 42.9972 28.4226 42.9257 28.3962 42.9058C28.3327 42.8587 28.1964 42.8054 28.137 42.7572C28.1263 42.7484 28.1517 42.6954 28.1441 42.6698C28.1149 42.5699 28.0391 42.532 27.9565 42.7001C27.9261 42.5587 27.8002 42.5958 27.719 42.5532C27.5488 42.4644 27.2762 42.2411 27.0942 42.216C26.9785 42.1998 26.9346 42.2714 26.8446 42.1253C26.8245 42.0928 26.8077 42.0557 26.7836 42.0166C26.7274 41.9249 26.74 41.7464 26.5735 41.8585C26.5119 41.7578 26.4198 41.7355 26.4459 41.5593C26.4163 41.5852 26.3867 41.6111 26.357 41.637C26.3455 41.6301 26.334 41.6232 26.3225 41.6163C26.3401 41.584 26.3576 41.5518 26.3753 41.5196C26.3032 41.4569 26.1183 41.509 26.0529 41.4604C25.944 41.3805 25.6977 41.1256 25.6263 41.0088C25.5879 40.9469 25.5376 41.0067 25.6045 40.8557C25.5858 40.8554 25.5671 40.8552 25.5483 40.8548C25.5193 40.8768 25.4902 40.8988 25.4612 40.9208C25.3907 40.8683 25.3435 40.7623 25.2776 40.7111C25.1591 40.6194 24.9196 40.551 24.8432 40.4056C24.8236 40.3688 24.8331 40.2826 24.8041 40.2596C24.7621 40.2262 24.6748 40.31 24.6202 40.2672C24.527 40.1941 24.4489 39.9435 24.3582 39.8785C24.3314 39.8593 24.2901 39.8827 24.2695 39.871C24.1831 39.8227 24.1266 39.7678 24.0113 39.7577C24.0147 39.6061 24.1199 39.5004 24.1979 39.3686C24.2565 39.2688 24.3814 39.0275 24.4411 38.9477C24.483 38.8915 24.5621 38.8422 24.6067 38.7789C24.7317 38.8095 24.7226 38.892 24.72 39.0343C24.8513 39.1453 24.984 39.2552 25.1172 39.3632C25.1019 39.4052 25.0867 39.4473 25.0716 39.4895C25.0715 39.4895 25.0715 39.4896 25.0714 39.4897C25.0914 39.5701 25.1817 39.505 25.2249 39.5093C25.6349 39.5503 26.0397 40.1073 26.327 40.3527C26.3886 40.4063 26.634 40.5166 26.6386 40.6034C26.6399 40.6262 26.6053 40.6809 26.6161 40.6922C26.7504 40.7417 26.8839 40.7892 27.0176 40.8355C27.1909 41.0786 27.4798 41.1726 27.7254 41.3128C28.3907 41.6926 29.0696 42.0279 29.7269 42.3876C29.8542 42.4575 30.0395 42.4974 30.1531 42.5885C30.2 42.6262 30.1765 42.7303 30.2806 42.6952C30.2691 42.7206 30.2576 42.7461 30.246 42.7716C30.2815 42.7714 30.3149 42.7631 30.3478 42.7569C30.3855 42.7498 30.4225 42.7456 30.4609 42.7601C30.5213 42.7832 30.6755 42.8512 30.7232 42.8849C30.7476 42.9021 30.7158 42.9449 30.7408 42.9562C30.7842 42.9753 30.9046 42.9509 30.9639 42.9776C31.0175 43.0018 31.0835 43.097 31.1282 43.1071C31.2899 43.1446 31.4862 43.1317 31.6369 43.2203C31.6783 43.2448 31.7091 43.3307 31.7236 43.3346C31.7519 43.342 31.7852 43.2845 31.8065 43.284C31.9153 43.2823 32.0289 43.4117 32.1198 43.4504C32.4127 43.5756 32.7387 43.6647 33.0346 43.7794C33.2219 43.8526 33.5402 43.9447 33.7031 44.0468C33.738 44.0689 33.7065 44.1345 33.7385 44.1445C33.7741 44.1554 33.8074 44.1147 33.8252 44.116C33.9493 44.1256 34.2171 44.1531 34.3121 44.2314C34.33 44.2464 34.3302 44.3051 34.3428 44.3084C34.3492 44.3102 34.3739 44.2772 34.3949 44.2789C34.5791 44.2941 34.7011 44.3501 34.8705 44.4075C35.1953 44.5174 35.5965 44.538 35.9382 44.6493C36.0131 44.6737 36.0434 44.7938 36.0544 44.7949C36.0786 44.7976 36.1087 44.727 36.1598 44.7184C36.332 44.6909 36.5299 44.8098 36.6899 44.7998C36.7678 44.7948 36.8878 44.7187 36.9644 44.7101C37.0245 44.7031 37.1597 44.7628 37.1914 44.7252C37.2111 44.7027 37.2306 44.6235 37.2514 44.6165ZM34.9963 45.4578C35.0377 45.3342 34.8992 45.4116 34.925 45.4896C34.9309 45.5073 34.9856 45.4899 34.9963 45.4578ZM29.9573 43.4085C29.942 43.4423 29.9267 43.4762 29.9114 43.51C29.932 43.5028 29.9525 43.4956 29.973 43.4884C29.975 43.4646 29.977 43.4407 29.979 43.4169C29.9718 43.4141 29.9645 43.4113 29.9573 43.4085Z" fill="#8B1F33"/>
<path d="M22.8911 34.3987C22.8125 34.3492 22.7387 34.2287 22.6555 34.1579C22.308 33.8593 22.2048 33.7237 21.9133 33.4408C21.7913 33.3219 21.6012 33.1497 21.3914 32.9501L21.0591 32.6557L21.2459 32.2252C21.5592 31.5679 21.9689 30.757 22.1902 30.8583C22.1902 30.8583 22.1902 30.8584 22.1902 30.8584C22.1932 30.8597 22.1962 30.8613 22.1991 30.863C22.2551 30.8954 22.2571 31.0599 22.3141 31.1103C22.3711 31.1607 22.8055 31.3414 22.7415 31.5446C22.6456 31.8377 22.2299 32.4559 22.1667 32.6067C22.1621 32.6177 22.1578 32.6291 22.1537 32.6409L22.0685 32.2163C22.1544 32.2821 22.2636 32.3349 22.3642 32.417C22.7183 32.704 22.8767 32.8849 23.261 33.0552C23.347 33.2064 23.4314 33.3535 23.523 33.5028C23.7058 33.6112 23.9148 33.8637 24.0236 33.9328C24.1113 33.9891 24.19 33.984 24.2816 34.0416C24.3845 34.1059 24.5151 34.2511 24.7121 34.357C25.036 34.5294 25.1557 34.4468 25.3569 34.5353C25.5666 34.6267 25.8562 34.8478 26.1445 34.9395C26.1838 34.9434 26.2229 34.947 26.2627 34.9511C26.2524 34.9111 26.2423 34.8712 26.2325 34.8314C26.3729 34.8839 26.4022 34.9698 26.5271 35.0322C26.6711 35.1041 26.775 35.0871 26.8722 35.1351C26.9549 35.176 27.0393 35.272 27.1482 35.3225C27.1506 35.3236 27.153 35.3247 27.1554 35.3258C27.2975 35.3893 27.2989 35.3134 27.3857 35.3418C27.4213 35.3545 28.0351 35.6105 28.0698 35.6251C28.3254 35.7436 28.3084 35.8421 28.5101 35.9446C29.0747 36.2301 29.694 36.4077 30.2426 36.5877C30.4871 36.6681 30.7349 36.7657 30.9741 36.8663C30.5061 36.964 31.2945 37.4437 31.1028 36.9671C31.3556 37.1123 31.5797 37.0756 31.8333 37.1731C31.998 37.2359 32.0949 37.3217 32.3383 37.3898C32.765 37.5094 33.2687 37.474 33.3322 37.7714C33.8483 37.8422 34.2777 38.022 34.5034 37.8138C34.6346 37.8223 34.9533 38.0196 35.0981 38.059C35.2347 38.1053 36.3154 38.2836 36.4958 38.2896C36.6759 38.3052 36.9861 38.3223 37.1388 38.3042C37.3311 38.282 37.4572 38.033 37.7974 38.3247C38.1859 38.294 38.3282 38.2961 38.692 38.3075C38.7582 38.3091 38.7689 38.3522 38.8076 38.3494C38.8871 38.3435 39.0207 38.3002 39.1602 38.2827C39.3905 38.2536 39.5348 38.328 39.4921 38.1914C39.6433 38.1497 39.7888 38.1064 39.9367 38.0606C39.9936 38.0796 40.0509 38.0983 40.1085 38.1167C40.1853 38.0745 40.2611 38.0317 40.3356 37.9886C40.2761 38.2078 40.8223 37.9827 40.6154 37.9028C40.916 37.8872 41.2086 37.8646 41.5098 37.8312C41.527 38.0695 42.1485 37.6847 42.0538 37.578C42.0867 37.5684 42.1186 37.559 42.1508 37.5494C42.3528 37.5314 42.5305 37.4638 42.7344 37.3953C42.8321 37.3624 42.9351 37.3296 43.0493 37.3014C43.4006 37.2132 43.3789 37.2429 43.5213 37.3012C43.5988 37.2633 43.6754 37.225 43.7518 37.186C44.0469 36.7377 44.1874 37.2401 44.7837 36.6924C45.0875 36.746 45.585 36.3628 45.8955 36.1028C45.9324 36.0724 45.9144 36.0417 45.9618 35.9992C46.0782 35.897 46.4278 35.7212 46.3526 35.6323C46.4828 35.585 46.6109 35.5372 46.7414 35.4857C46.8198 35.4048 46.8963 35.3238 46.9721 35.2421C46.9504 35.2135 46.9287 35.1849 46.9069 35.1563C47.1587 35.1239 47.4051 34.8733 47.5561 34.7883C47.5864 34.7714 47.6227 34.8061 47.7141 34.7488C47.8223 34.6812 47.9878 34.5229 48.1116 34.4354C48.1195 34.356 48.1266 34.2768 48.1329 34.198C48.3086 34.002 48.4757 34.0435 48.5963 33.9465C48.6203 33.9291 48.9797 33.567 48.9967 33.5432C49.1373 33.365 49.0104 33.3292 49.4718 32.8732C49.5532 32.7916 49.6471 32.7513 49.7188 32.6734C49.8451 32.5397 50.132 32.0495 50.0883 31.959C50.3183 31.8589 50.6479 31.3589 50.7777 31.2339C50.8168 31.1975 50.8816 31.2305 50.991 31.1052C51.0777 31.0075 51.2303 30.6901 51.3307 30.5567C51.4399 30.4131 51.5239 30.3934 51.5715 30.3282C51.6178 30.2643 51.6134 30.1819 51.6695 30.094C51.7433 29.9789 51.8251 29.8736 51.9016 29.7789L51.8797 30.1565C51.8308 29.9958 51.7822 29.832 51.7198 29.7032C51.5578 29.3682 51.2774 29.1467 51.073 28.9126C51.0423 28.8391 51.0343 28.7632 50.9939 28.6929C50.5043 27.834 49.8865 26.9052 49.2651 26.1314C48.9885 25.7647 48.3177 24.8119 48.3034 25.2599C48.1604 25.1814 47.3958 24.3108 47.2166 24.1789C47.0468 24.0389 46.8737 23.9789 46.7355 23.8766C46.317 23.5704 46.0387 23.3275 45.4705 23.0476C45.3231 22.9759 45.1376 22.951 45.0546 22.9048C44.9548 22.849 44.8736 22.7301 44.7433 22.6589C44.5518 22.5541 44.25 22.4152 43.967 22.2965C43.786 22.22 43.6158 22.1522 43.493 22.0997C43.4354 22.075 43.4366 22.0127 43.3581 21.9638C43.052 21.7718 42.6727 21.6602 42.6829 21.8592C42.2871 21.6225 41.8578 21.6102 41.4543 21.5292C40.6021 21.3339 39.0051 21.1566 38.2417 21.271C37.7622 21.3355 37.7816 21.4112 37.0727 21.4012C36.915 21.4007 36.7577 21.3965 36.5654 21.4024C36.1175 21.4156 35.6775 21.3378 35.3788 21.5905C34.8795 21.6457 34.5043 21.7791 34.1011 21.7289C34.0693 21.7779 34.0378 21.8269 34.0066 21.8761C33.9479 21.8944 33.8894 21.9131 33.831 21.932C33.802 21.9028 33.7729 21.8736 33.7436 21.8446C33.3149 21.9662 32.8379 22.2973 32.4928 22.4347C31.9048 22.6463 30.4307 23.3048 29.8978 23.5804C29.6106 23.7193 29.639 23.7952 29.3996 23.7542C29.3447 23.8014 29.2903 23.8489 29.2363 23.8966C29.2177 23.9502 29.1994 24.0037 29.1814 24.0572C28.842 24.2777 28.4147 24.5097 28.1062 24.7424C27.6043 25.1154 26.9671 25.7494 26.4611 26.2096C26.389 26.2748 26.3206 26.3338 26.2557 26.3862C26.1121 26.503 25.8968 26.61 25.7715 26.7323C25.5832 26.9161 25.6235 27.0438 25.391 27.2744C24.9837 27.6689 24.1947 28.2957 23.9744 28.7381C23.9023 28.8661 23.9095 28.948 23.8657 29.0416C23.6864 29.4336 23.5419 29.7726 23.4392 30.204C23.1548 30.5982 23.0332 30.5053 22.8392 30.5857C22.6929 30.6467 22.3232 30.8675 22.2116 30.8798C22.1339 30.8868 22.0986 30.732 22.0091 30.7495C22.1631 30.1939 22.3131 29.9963 22.5927 29.6033C22.9084 28.8116 23.3429 27.9377 23.9697 27.2822C24.0544 27.2514 24.1418 27.2192 24.226 27.1916C24.226 27.1916 24.2261 27.1917 24.2262 27.1918C24.493 26.983 24.5172 26.8097 24.6274 26.6658C24.906 26.3042 25.2872 25.894 25.724 25.4502C26.9632 24.1633 28.8842 22.9864 30.1377 22.364C30.4967 22.1652 31.6913 21.5533 31.9833 21.5211C32.0577 21.5101 32.1005 21.5626 32.1734 21.5367C32.8018 21.247 33.4482 20.9902 34.1099 20.7704C35.5131 20.4916 36.9653 20.192 38.4177 20.1674C40.4617 20.1283 42.517 20.5067 44.3957 21.3058C46.1186 22.033 47.6818 23.1055 48.9927 24.4086C49.5244 24.9307 50.1867 25.6145 50.604 26.2188C50.7768 26.4687 50.7686 26.6304 51.0607 26.9137C51.0401 26.933 51.0194 26.9523 50.9988 26.9716C51.224 27.2395 51.3983 27.388 51.6112 27.7182C51.7932 27.9919 52.2247 28.7514 52.3423 29.0154C52.4069 29.1535 52.3355 29.1282 52.3972 29.2508C52.4621 29.3799 52.5835 29.5731 52.7009 29.7801L52.8118 30.0098L52.6737 30.2477C52.6014 30.3953 52.5212 30.5473 52.4461 30.6649C52.2856 30.9192 51.9528 31.3027 51.825 31.4956C51.3715 32.1897 50.8734 32.9554 50.2523 33.5942C50.0794 33.7731 49.8134 33.9505 49.7602 34.007C49.6589 34.1156 49.6734 34.1937 49.6072 34.2713C49.274 34.6658 48.6245 35.1448 48.2311 35.4567C46.96 36.4854 45.4688 37.4235 43.9474 38.0332C43.6941 38.1357 43.3961 38.2503 43.0707 38.3625C42.1712 38.6797 41.0767 38.9326 40.3795 39.0065C40.1737 39.0294 40.2169 38.9494 40.0471 38.9749C39.8587 39.0024 39.7647 39.0631 39.6756 39.0782C39.0698 39.1954 37.7004 39.3054 37.1199 39.2273C37.0086 39.2149 36.9303 39.1555 36.8642 39.1531C36.8308 39.1518 36.7536 39.1873 36.6487 39.1858C35.7181 39.169 35.0442 39.0637 34.1517 38.8918C32.4423 38.5631 30.497 38.0195 28.8426 37.2604C28.4831 37.0969 28.2806 36.8808 28.233 36.8606C28.1194 36.8112 28.0177 36.8476 27.7875 36.76C27.4491 36.6312 27.0659 36.4429 26.6966 36.2528C26.2336 36.0154 25.7696 35.7747 25.3743 35.6009C25.0234 35.4476 24.5004 35.2827 24.1497 35.0955C23.8652 34.954 23.2733 34.4963 23.1413 34.4428C23.0588 34.4124 22.9786 34.4536 22.8911 34.3987ZM32.5772 37.5213C32.4924 37.6343 33.0517 37.6687 32.8702 37.5494C32.8293 37.523 32.5988 37.4925 32.5772 37.5213ZM50.4771 27.4466C50.4494 27.4717 50.4216 27.4969 50.3938 27.522C50.4475 27.5733 50.5005 27.6244 50.5529 27.6752C50.5493 27.6295 50.5453 27.5835 50.541 27.5373C50.5199 27.5071 50.4986 27.4769 50.4771 27.4466Z" fill="#8B1F33"/>
<path d="M29.7004 31.9459C29.1719 30.2559 29.2368 28.4159 29.2692 27.5188C29.3373 25.5613 29.7328 23.9692 30.0797 22.8894C30.8968 22.4229 32.1256 21.816 33.6948 21.356C34.9625 20.9841 38.4122 20.0217 42.5331 21.1766C43.697 21.5029 45.5257 22.1717 47.4742 23.6136C47.7044 24.7946 47.9346 26.7488 47.4742 29.0847C47.2959 29.9851 46.8777 32.0046 45.4576 34.0338C44.6859 35.1365 42.3159 38.5261 38.4868 38.7415C34.2525 38.9796 30.712 35.1985 29.6972 31.9491L29.7004 31.9459Z" fill="#8B1F33"/>
</svg>
