<svg width="35" height="35" viewBox="0 0 35 35" fill="none" xmlns="http://www.w3.org/2000/svg">
<g id="Iconly/Light-outline/Setting">
<g id="Setting">
<path id="Setting_2" fill-rule="evenodd" clip-rule="evenodd" d="M18.399 2.91669C19.4328 2.91635 20.4225 3.32621 21.1431 4.05243C21.8637 4.77874 22.2545 5.75976 22.2232 6.67548L22.2349 6.8913C22.2601 7.10335 22.3306 7.30812 22.4449 7.49677C22.6675 7.8688 23.0325 8.13836 23.4585 8.24677C23.8846 8.35516 24.3375 8.29324 24.7661 8.04755L25.0044 7.92645C26.7981 7.10028 28.9499 7.75712 29.9449 9.44891L30.8384 10.9694C30.862 11.0095 30.883 11.051 30.9009 11.0934L30.9839 11.2565C31.7834 12.9287 31.215 14.9178 29.6958 15.9284L29.3199 16.1589C29.1238 16.2928 28.9604 16.4682 28.8374 16.6784C28.6153 17.0519 28.5548 17.4971 28.6685 17.9147C28.7822 18.3324 29.0608 18.6887 29.4839 18.9284L29.7271 19.0807C30.4626 19.5848 30.9943 20.3279 31.2261 21.1794C31.4875 22.1399 31.3474 23.1632 30.8296 24.0339L29.8677 25.6042L29.7222 25.8259C28.592 27.4178 26.3977 27.9044 24.7232 26.9577L24.524 26.8571C24.317 26.7665 24.0934 26.7162 23.8902 26.7106C23.448 26.7087 23.0232 26.88 22.7105 27.1862C22.3977 27.4927 22.2231 27.9093 22.2241 28.3932L22.2124 28.6442C22.0503 30.582 20.3939 32.0837 18.399 32.0837H16.5972C14.4846 32.0835 12.7721 30.4053 12.774 28.402L12.7613 28.1862C12.7361 27.9741 12.6655 27.7695 12.5454 27.571C12.3276 27.198 11.9671 26.9252 11.5435 26.8141C11.1198 26.7031 10.6679 26.763 10.231 27.0104L9.9722 27.1374C9.15119 27.4991 8.22473 27.5655 7.35696 27.3239C6.37789 27.0513 5.55002 26.4078 5.06692 25.5534L4.13724 23.9811L4.01321 23.7477C3.16718 21.9975 3.83064 19.8935 5.51419 18.9401L5.66751 18.8454C6.11735 18.5404 6.38724 18.0376 6.38724 17.4997C6.38712 16.915 6.06913 16.3745 5.51224 16.0583L5.28567 15.9167C3.66056 14.8094 3.16393 12.6593 4.17044 10.9479L5.11771 9.42352C6.17074 7.63291 8.50446 7.01479 10.2993 8.02313L10.4937 8.12469C10.6916 8.21371 10.9068 8.26114 11.1138 8.26337C12.0272 8.26346 12.7717 7.54486 12.7857 6.62372L12.7984 6.34052C12.8732 5.46467 13.2609 4.64159 13.895 4.01727C14.6105 3.31296 15.583 2.9168 16.5972 2.91669H18.399ZM16.5972 5.02802C16.1563 5.02812 15.7334 5.20036 15.4224 5.50653C15.1467 5.77797 14.9784 6.1362 14.9488 6.4704L14.9292 6.91473C14.7784 8.85334 13.1248 10.3749 11.1031 10.3747C10.5819 10.3694 10.0674 10.2564 9.54349 10.0192L9.26321 9.87372C8.46405 9.42532 7.44519 9.69539 6.9722 10.4987L6.02493 12.0231C5.59111 12.7608 5.80834 13.7001 6.48001 14.1589L6.85989 14.3952C7.90691 15.0888 8.5424 16.2499 8.54251 17.4997C8.54251 18.7313 7.9253 19.8834 6.85794 20.6061L6.6304 20.7458C5.88252 21.1697 5.59335 22.0854 5.94095 22.8063L6.02396 22.9616L6.94095 24.5124C7.15643 24.8933 7.51824 25.1746 7.94583 25.2936C8.32461 25.3991 8.72898 25.3698 9.04446 25.2321L9.20364 25.1559C10.0787 24.6557 11.1214 24.5186 12.1001 24.7751C13.0789 25.0317 13.9132 25.6605 14.4077 26.5075C14.6738 26.9466 14.8416 27.4359 14.9068 27.9977L14.9361 28.5134C15.0268 29.3334 15.7361 29.9721 16.5972 29.9724H18.399C19.2699 29.9724 19.9939 29.3161 20.062 28.5124L20.0699 28.3532C20.0649 27.3563 20.4675 26.399 21.187 25.694C21.9065 24.9892 22.8833 24.5952 23.9243 24.6003C24.435 24.6137 24.9379 24.7254 25.4517 24.9518L25.9126 25.1823C26.6358 25.4933 27.4944 25.2671 27.9292 24.6559L28.0347 24.4938L28.9741 22.9597C29.1963 22.5862 29.2577 22.141 29.1441 21.7233C29.0433 21.3531 28.8119 21.0298 28.5318 20.8366L28.1343 20.5905C27.3753 20.0877 26.8231 19.3318 26.5855 18.4587C26.3241 17.4982 26.4645 16.475 26.9712 15.6227C27.2487 15.1481 27.6303 14.7394 28.1275 14.4011L28.3618 14.2565C29.1084 13.8286 29.3972 12.9137 29.0523 12.1901L28.9488 11.9948L28.9302 11.9548L28.0777 10.5026C27.6743 9.81697 26.8347 9.52054 26.1226 9.75458L25.9605 9.81805L25.8101 9.89325C24.9377 10.3967 23.8965 10.54 22.9165 10.2907C21.9367 10.0413 21.0986 9.41984 20.5894 8.56903C20.3235 8.12999 20.1546 7.64152 20.0894 7.07977L20.0708 6.71161C20.0837 6.2695 19.9128 5.84126 19.5982 5.52411C19.2834 5.20688 18.851 5.02783 18.399 5.02802H16.5972ZM17.5044 12.7341C20.1909 12.7341 22.3694 14.8677 22.3697 17.4997C22.3696 20.1319 20.191 22.2663 17.5044 22.2663C14.818 22.266 12.6402 20.1317 12.6402 17.4997C12.6404 14.8678 14.8181 12.7343 17.5044 12.7341ZM17.5044 14.8454C16.0083 14.8457 14.7957 16.0339 14.7954 17.4997C14.7955 18.9657 16.0082 20.1547 17.5044 20.155C19.0009 20.155 20.2143 18.9658 20.2144 17.4997C20.2141 16.0337 19.0008 14.8454 17.5044 14.8454Z" fill="#574143"/>
</g>
</g>
</svg>
