<svg width="35" height="35" viewBox="0 0 35 35" fill="none" xmlns="http://www.w3.org/2000/svg">
<path fill-rule="evenodd" clip-rule="evenodd" d="M14.9478 28.4375C14.9478 27.8334 15.4374 27.3438 16.0415 27.3438H30.6248C31.2289 27.3438 31.7186 27.8334 31.7186 28.4375C31.7186 29.0416 31.2289 29.5312 30.6248 29.5312H16.0415C15.4374 29.5312 14.9478 29.0416 14.9478 28.4375Z" fill="#574143"/>
<path fill-rule="evenodd" clip-rule="evenodd" d="M14.9478 18.2292C14.9478 17.6251 15.4374 17.1354 16.0415 17.1354H30.6248C31.2289 17.1354 31.7186 17.6251 31.7186 18.2292C31.7186 18.8332 31.2289 19.3229 30.6248 19.3229H16.0415C15.4374 19.3229 14.9478 18.8332 14.9478 18.2292Z" fill="#574143"/>
<path fill-rule="evenodd" clip-rule="evenodd" d="M14.9478 8.02084C14.9478 7.41678 15.4374 6.92709 16.0415 6.92709H30.6248C31.2289 6.92709 31.7186 7.41678 31.7186 8.02084C31.7186 8.6249 31.2289 9.11459 30.6248 9.11459H16.0415C15.4374 9.11459 14.9478 8.6249 14.9478 8.02084Z" fill="#574143"/>
<path fill-rule="evenodd" clip-rule="evenodd" d="M10.9817 4.33079C11.4089 4.75792 11.4089 5.45045 10.9817 5.87759L6.60673 10.2526C6.1796 10.6797 5.48707 10.6797 5.05994 10.2526L3.6016 8.79425C3.17447 8.36712 3.17447 7.67459 3.6016 7.24746C4.02874 6.82032 4.72126 6.82032 5.1484 7.24746L5.83333 7.93239L9.43493 4.33079C9.86207 3.90365 10.5546 3.90365 10.9817 4.33079Z" fill="#574143"/>
<path fill-rule="evenodd" clip-rule="evenodd" d="M10.9817 14.5391C11.4089 14.9662 11.4089 15.6588 10.9817 16.0859L6.60673 20.4609C6.1796 20.888 5.48707 20.888 5.05994 20.4609L3.6016 19.0026C3.17447 18.5754 3.17447 17.8829 3.6016 17.4558C4.02874 17.0286 4.72126 17.0286 5.1484 17.4558L5.83333 18.1407L9.43493 14.5391C9.86207 14.112 10.5546 14.112 10.9817 14.5391Z" fill="#574143"/>
<path fill-rule="evenodd" clip-rule="evenodd" d="M10.9817 24.7474C11.4089 25.1746 11.4089 25.8671 10.9817 26.2942L6.60673 30.6692C6.1796 31.0964 5.48707 31.0964 5.05994 30.6692L3.6016 29.2109C3.17447 28.7838 3.17447 28.0912 3.6016 27.6641C4.02874 27.237 4.72126 27.237 5.1484 27.6641L5.83333 28.349L9.43493 24.7474C9.86207 24.3203 10.5546 24.3203 10.9817 24.7474Z" fill="#574143"/>
</svg>
