<svg width="30" height="30" viewBox="0 0 30 30" fill="none" xmlns="http://www.w3.org/2000/svg">
<path d="M3.6227 22.7754C4.22284 24.5363 4.7259 26.3605 5.62611 27.995C6.21742 29.0786 7.26767 30.0178 8.53855 29.9997C10.2772 29.9546 11.9188 29.3044 13.5691 28.8529C16.7552 27.9408 19.8177 26.6404 22.9154 25.4845C25.3954 24.5273 28.2284 23.4526 29.4111 20.8067C30.8143 17.9802 29.3493 14.8737 28.7315 12.0471C27.8666 8.05565 26.4545 4.05515 23.7715 0.939633C22.4742 -0.469124 20.4178 0.0456021 18.7851 0.334578C16.2786 0.804163 13.6839 0.948658 11.3098 1.97813C9.74766 2.53802 8.45912 3.66685 6.897 4.21771C4.82298 5.01239 2.69602 5.82513 0.948553 7.26098C0.0306918 8.0376 -0.145819 9.35604 0.101297 10.4939C0.851472 14.7021 2.33417 18.7207 3.6227 22.7754ZM1.89289 8.53428C4.02868 6.61078 6.73813 5.58131 9.32403 4.47056C12.4748 2.93537 16.0491 3.24241 19.4117 2.57415C20.4443 2.46578 21.6887 2.03232 22.5624 2.827C24.6452 4.99432 26.0132 7.81183 26.6487 10.7558C27.1517 13.1308 27.9901 15.4426 28.202 17.8628C28.352 19.2806 27.5136 20.599 26.3839 21.3485C24.3187 22.7663 21.8828 23.4526 19.5882 24.3557C16.3757 25.629 13.0837 26.6856 9.73001 27.5073C9.04161 27.688 8.19436 27.7783 7.6913 27.1371C6.67636 25.9541 6.32333 24.3737 5.76732 22.9379C4.30227 18.7297 2.58129 14.5757 1.67225 10.1868C1.6193 9.63599 1.3457 8.91356 1.89289 8.53428Z" fill="#8B1F33"/>
<path d="M17.082 9.16636C17.4615 12.1916 17.8674 15.2168 18.2028 18.242C17.3379 18.6484 16.4818 19.0819 15.6522 19.5695C15.8464 20.2378 16.0847 20.897 16.3494 21.5381C17.4879 21.2853 18.6 20.8879 19.7473 20.7073C20.4092 20.1384 21.1947 19.7682 21.9449 19.3528C22.8274 18.8832 23.4452 18.0704 24.0277 17.2757C22.898 17.05 21.7595 17.1674 20.6651 17.4293C20.065 14.1332 19.5708 10.819 19.1736 7.4867C19.0854 6.91778 19.0236 6.32175 18.75 5.80701C18.1852 5.35549 17.4173 5.39162 16.7642 5.59029C16.1111 6.91777 15.6787 8.36265 15.0697 9.70819C14.7079 10.3223 14.9373 11.0086 15.105 11.6407C15.8905 10.9364 16.5083 10.0604 17.082 9.16636Z" fill="#8B1F33"/>
<path d="M10.5686 17.5106C10.9658 18.9555 11.3453 20.6983 12.8191 21.3937C13.1192 19.9578 13.331 18.4317 12.7574 17.032C13.7811 16.6527 14.8402 15.6864 14.6813 14.4763C13.8606 13.8171 12.7927 14.2325 11.866 14.3409C11.5483 13.7358 11.3188 13.0405 10.7716 12.607C10.3568 12.4896 9.92434 12.5438 9.50954 12.5348C9.71253 13.3566 9.98612 14.1693 10.1097 15.0182C9.15652 15.7225 8.04449 16.1379 6.96777 16.5895C7.17959 17.1132 7.3914 17.637 7.61204 18.1608C8.62698 18.0885 9.60663 17.8357 10.5686 17.5106Z" fill="#8B1F33"/>
</svg>
